<svg xmlns="http://www.w3.org/2000/svg" xmlns:xlink="http://www.w3.org/1999/xlink" xmlns:lucid="lucid" width="1783.15" height="1235.67"><g transform="translate(-20 20)" lucid:page-tab-id="0_0"><path d="M0 0h1870.87v1322.84H0z" fill="#fff"/><path d="M1067.72 586a6 6 0 0 1 6-6h703.43a6 6 0 0 1 6 6v548a6 6 0 0 1-6 6h-703.43a6 6 0 0 1-6-6z" stroke="#cd2264" fill="#fff" fill-opacity="0"/><path d="M1067.72 580h56v56h-56v-56z" stroke="#fff" stroke-opacity="0" fill="#cd2264"/><path d="M1106.9 616.78h-22.4v-2.4h6.4c.46 0 .82-.35.82-.8v-3.98c0-.44-.36-.8-.82-.8h-6.4v-1.6h6.4c.46 0 .82-.36.82-.8v-4c0-.43-.36-.8-.82-.8h-6.4v-2.38h22.4v4h1.62v-4.8c0-.48-.36-.84-.8-.84h-11.2v-1.6c1.6-.32 2.78-1.47 3.1-3.1.47-2.16-.94-4.28-3.1-4.72-2.17-.44-4.27.96-4.73 3.1-.44 2.17.94 4.28 3.1 4.72v1.6h-11.18c-.46 0-.8.36-.8.84v3.2h-6.42c-.42 0-.78.35-.78.8v3.98c0 .44.36.8.78.8h6.43v1.6h-6.43c-.42 0-.78.36-.78.8v4c0 .43.36.8.78.8h6.43v3.18c0 .48.33.84.8.84h11.17v1.68c-1.6.3-2.78 1.47-3.1 3.1-.44 2.16.94 4.28 3.1 4.72 2.17.44 4.3-.96 4.73-3.1.46-2.17-.95-4.3-3.12-4.72v-1.68h11.23c.43 0 .8-.36.8-.84v-4h-1.62zm-13.57-24.8c0-1.3 1.05-2.38 2.4-2.38 1.3 0 2.4 1.07 2.4 2.4 0 1.3-1.1 2.4-2.4 2.4-1.35 0-2.4-1.1-2.4-2.4zm-16 11.23h12.8v2.4h-12.8zm0 7.2h12.8v2.4h-12.8zm20.8 13.6c0 1.33-1.1 2.4-2.4 2.4-1.35 0-2.4-1.07-2.4-2.4 0-1.3 1.05-2.4 2.4-2.4 1.3 0 2.4 1.1 2.4 2.4z" stroke="#fff" stroke-opacity="0" fill="#fff"/><path d="M1114.92 604.8h-16c-.45 0-.8.36-.8.8v5.6c0 .44.35.8.8.8h16c.44 0 .8-.36.8-.8v-5.6c0-.44-.36-.8-.8-.8zm-.8 5.6h-14.4v-4h14.4z" stroke="#fff" stroke-opacity="0" fill="#fff"/><use xlink:href="#a" transform="matrix(1,0,0,1,1138.716535433071,600) translate(0 14.4)"/><use xlink:href="#b" transform="matrix(1,0,0,1,1138.716535433071,600) translate(45.3 14.4)"/><use xlink:href="#c" transform="matrix(1,0,0,1,1138.716535433071,600) translate(87.3 14.4)"/><path d="M127.72 780h120v120h-120V780z" stroke="#fff" stroke-opacity="0" fill="#693cc5"/><path d="M205.33 878.42c-.36 0-.65-.15-.94-.3-.44-.3-.68-.77-.68-1.3v-73.63c0-.55.28-1.1.77-1.4.47-.3 1.07-.3 1.57-.07l20.82 10.22c.55.23.88.77.88 1.38v56.56c.03.76-.4 1.37-1.1 1.6l-20.8 6.92h-.55zm1.6-72.62v68.78l17.6-5.84v-54.4zM170.1 878.42h-.5l-20.8-6.92c-.68-.23-1.1-.92-1.1-1.6v-56.57c0-.6.35-1.15.9-1.38l20.8-10.22c.54-.23 1.1-.23 1.62.08.48.32.74.85.74 1.4v73.6c0 .54-.24 1-.67 1.3-.3.24-.6.32-1 .32zm-19.2-9.6l17.62 5.83V805.8l-17.6 8.6z" stroke="#fff" stroke-opacity="0" fill="#fff"/><path d="M203.72 824h-4.8v-3.2h4.8zm-9.6 0h-4.82v-3.2h4.8zm-9.6 0h-4.8v-3.2h4.8zm-9.6 0h-4.8v-3.2h4.8zM203.72 859.2h-4.8V856h4.8zm-9.6 0h-4.82V856h4.8zm-9.6 0h-4.8V856h4.8zm-9.6 0h-4.8V856h4.8zM180.7 845.5l-6.02-5.13c-.68-.57-.75-1.6-.18-2.26l.18-.17 6-5.13 2.08 2.43-4.58 3.97 4.58 3.92zM194.75 845.5l-2.07-2.42 4.57-3.88-4.6-3.9 2.1-2.5 6 5.12c.68.57.76 1.6.2 2.26l-.2.17z" stroke="#fff" stroke-opacity="0" fill="#fff"/><path d="M183 848.87l6.37-18.8 3.03 1.03-6.36 18.8-3.03-1.03z" stroke="#fff" stroke-opacity="0" stroke-width=".32" fill="#fff"/><use xlink:href="#d" transform="matrix(1,0,0,1,97.71653543307082,909) translate(17.28395061728395 17.77777777777778)"/><use xlink:href="#e" transform="matrix(1,0,0,1,97.71653543307082,909) translate(126.91358024691358 17.77777777777778)"/><path d="M563.15 360h120v120h-120V360z" stroke="#fff" stroke-opacity="0" stroke-width="2" fill="#3f8624"/><path d="M661.44 424.06c-.46-2.48-3.3-4.25-5.3-5.53-.6-.4-2.3-1.04-2.45-1.6 0-.4 0-.8.15-1.2l1.6-11.46 1.4-10.17c.37-3.05-1.1-5.13-3.62-6.9-5.13-3.6-11.88-5.04-17.94-6-7.98-1.28-14.96-1.52-23-.72-7.3.48-13.35 1.92-20.1 4.8-3.37 1.6-7.9 4.1-7.28 8.42 1.54 12.98 3.45 25.95 5.22 38.93.76 5.93 1.6 11.86 2.37 17.8.32 2.47 1.7 4.4 4 5.35 4.9 2.65 11.04 3.45 16.64 3.93 7.74.73 14.33.5 22-.95 4.6-.8 13.2-2.25 13.95-8 .9-7.14 1.9-14.27 2.83-21.4l.38-2.17c2.62.64 10.06 2 9.14-3.12zM620.8 383.2c9.66 0 20.63 1.12 29.2 5.85 1.4.72 4.46 2.32 3.54 4.33-.92 1.92-3.83 2.88-5.6 3.6-2.6.96-4.98 1.6-7.74 2.16-11.96 2.4-22.54 2.65-34.65.73-5.45-.57-9.97-1.93-14.88-4.33-1.15-.72-3.06-1.84-2.53-3.45.4-.9 1-1.53 1.84-2 3.76-2.4 7.2-3.85 11.58-4.66 6.6-1.6 12.42-2.32 19.24-2.24zm25.15 67.46c-.3 1.84-3.37 2.8-4.83 3.28-3.22 1.12-6.06 1.76-9.43 2.16-7.45.97-13.9.97-21.4 0-4.68-.4-8.6-1.44-12.8-3.52-1.15-.48-1.84-1.52-1.92-2.72-1.6-12.74-3.37-25.4-5.14-38.06l-1.84-13.78c3.84 2.1 7.36 3.37 11.66 4.1 4.67.95 8.58 1.43 13.34 1.75 9.2.64 17.1.24 26.22-1.44 4.83-.72 8.8-2.08 13.1-4.4l-3.37 25.07c-8.58-2.8-15.64-5.6-23.7-9.54-.37-.16-.68-.32-.98-.48-.46-.32-.3-.16-.54-.64-.38-.96-.46-1.6-1.3-2.4-.77-.56-1.6-.8-2.53-.72-2 .08-3.53 1.84-3.38 3.84.16 1.93 1.92 3.45 3.9 3.3.55-.1 1-.25 1.62-.5.62-.15.62-.15 1.23.17 8.2 4 15.33 6.97 24 9.85 1.22.4 1.22 0 1.22 1.04-.08.8-.16 1.53-.3 2.33l-1 7.6zm-24.7-37.9c0 .48-.6.4-.75.16-.23-.32.76-.72.76-.16zm31.52 11.22l.46-3.53c1.6.97 4.3 2.33 5.06 4.1-1.62.63-4.07-.17-5.53-.57z" stroke="#fff" stroke-opacity="0" stroke-width="2" fill="#fff"/><use xlink:href="#f" transform="matrix(1,0,0,1,533.1496062992125,489) translate(34.5679012345679 17.77777777777778)"/><use xlink:href="#g" transform="matrix(1,0,0,1,533.1496062992125,489) translate(85.06172839506172 17.77777777777778)"/><use xlink:href="#h" transform="matrix(1,0,0,1,533.1496062992125,489) translate(56.04938271604938 44.44444444444444)"/><path d="M1167.72 680h120v120h-120V680z" stroke="#fff" stroke-opacity="0" fill="#1c7b68"/><path d="M1189.72 780c-1.12 0-2-.88-2-2 0-.4.08-.64.24-.96l6.72-13.1c-2.48-4.1-3.6-8.17-3.6-12.9.08-14.14 11.6-25.5 25.68-25.34 5.76 0 10.64 1.68 15.2 5.12l-1.92 2.56c-7.6-5.84-17.52-6.24-25.6-1.04-10.32 6.64-13.28 20.4-6.56 30.7.32.5.32 1.05.08 1.6l-5.52 10.72 10.96-5.52c.56-.24 1.12-.24 1.6.08 10.32 6.24 23.6 3.28 30.32-6.7l2.64 1.75c-7.44 11.2-22.16 14.7-33.84 8.15l-13.44 6.64c-.32.16-.64.24-.96.24zm1.12-1.52zm40.08-33.5h-3.2v9.43h3.2zm-4.8-6.48h-3.2v22.4h3.2zm-4.8 4.8h-3.2v12.8h3.2zm-4.8-4.8h-3.2v22.4h3.2zm-4.8 3.2h-3.2v16h3.2zm-4.8-1.6h-3.2v19.2h3.2zm-4.8 4.8h-3.2v11.2h3.2zm65.6 17.6v-25.6h-3.2v24h-24v3.2h25.68c.88-.1 1.52-.8 1.52-1.7zm-.48-46l-16.16-16c-.24-.3-.56-.47-.96-.47h-28.8c-.88 0-1.6.72-1.6 1.6v20.8h3.2v-19.2h25.6v14.64c0 .8.72 1.43 1.44 1.35h14.56v8h3.2v-9.6c0-.48-.16-.88-.48-1.2zm-15.52-.47V705.4l10.48 10.63zm-1.76-16zm8.16 22.47h-16v3.2h16zm-1.6 6.4h-20.8v3.2h20.8zm-14.4-16.07h-12.8v3.2h12.8zm-3.2 9.67h-9.6v3.2h9.6zm-3.2 17.6h-3.2v19.2h3.2zm4.8 3.2h-3.2v12.8h3.2z" stroke="#fff" stroke-opacity="0" fill="#fff"/><use xlink:href="#i" transform="matrix(1,0,0,1,1137.716535433071,809) translate(49.29012345679012 17.77777777777778)"/><use xlink:href="#j" transform="matrix(1,0,0,1,1137.716535433071,809) translate(38.05555555555555 44.44444444444444)"/><path d="M1567.72 680h120v120h-120V680z" stroke="#fff" stroke-opacity="0" fill="#1c7b68"/><path d="M1637.72 780.42c-.32 0-.56-.08-.8-.25l-9.2-5.5-9.2 5.5c-.5.33-1.05.33-1.6 0l-18.82-11.47c-.47-.33-.72-.8-.72-1.38v-11.48l-8.88-5c-.48-.25-.8-.82-.8-1.38v-18.92c0-.56.32-1.13.8-1.37l8.8-5v-11.5c0-.55.24-1.12.8-1.36l18.8-11.47c.5-.32 1.05-.32 1.6 0l9.14 5.5 9.2-5.5c.48-.32 1.04-.32 1.6 0l18.9 11.48c.47.33.7.82.7 1.38v11.48l8.9 5c.47.25.8.82.8 1.38v18.92c0 .56-.33 1.13-.8 1.37l-8.8 5v11.5c0 .56-.33 1.12-.8 1.37l-18.82 11.47c-.24.17-.48.25-.8.25zm-8.4-8.5l8.4 5.02 17.2-10.5v-11.57c0-.56.33-1.05.8-1.37l7.13-4.04-6-3.24c-1.92 1.62-4.8 1.38-6.48-.48-1.6-1.94-1.44-4.85.48-6.55 2-1.62 4.88-1.38 6.48.48.8.9 1.12 1.86 1.12 3.07v.65l6.16 3.4v-15.37l-8.87-4.93c-.56-.32-.8-.8-.8-1.37v-4.37h-4.48c-.88 2.43-3.53 3.64-5.93 2.75-2.32-.88-3.6-3.54-2.72-5.9.96-2.4 3.6-3.63 5.92-2.74 1.37.5 2.24 1.46 2.73 2.75h4.48v-4.03l-17.2-10.5-8.4 5v17.63l8.87 5.1c2-1.47 4.88-1.06 6.4.96 1.52 2.02 1.12 4.85-.88 6.38-2 1.54-4.88 1.13-6.4-.9-.64-.88-.96-1.76-.96-2.74 0-.4.08-.64.16-.97l-9.6-5.5c-.48-.3-.8-.8-.8-1.45v-18.5l-8.4-5.02-7.6 4.6V719h-3.2v-9.4l-6.4 3.97v10.67l8 4.53 8-4.53V716h3.2v9.13c0 .57-.33 1.05-.8 1.37l-8.8 4.93v7.68l8.8 5.75c.47.32.7.8.7 1.38v5.33l6.42-3.8v-6.8l-8.4-5 1.6-2.75 9.28 5.5c.48.33.8.82.8 1.38v20.77h7.28c.88-2.34 3.52-3.55 5.92-2.66 1.84.63 2.96 2.33 2.96 4.27-.16 2.6-2.4 4.53-4.88 4.37-1.84-.17-3.28-1.13-4-2.75h-7.36zm-18.25.9l6.64 4.04 8.42-5v-20.38l-17.85 10.6-1.6-2.84 9.84-5.82v-6.4l-8-5.24-8.95 5.1-1.6-2.84 9.04-5v-7.6l-8.02-4.53-8 4.53v5.9l6.8-4.04 1.6 2.74-8.48 4.93v7.52l8 4.5 8.1-4.75 1.6 2.74-8.1 4.76v10.67l7.2 4.45 8.33-4.93.16.16.3-.23 1.6 2.75zm29.85-11.88c-.72 0-1.36.64-1.36 1.37 0 .82.64 1.47 1.36 1.47.8 0 1.44-.65 1.44-1.46-.08-.72-.64-1.28-1.44-1.28zm12.97-19.65c-.8 0-1.45.56-1.45 1.37 0 .73.64 1.37 1.44 1.37.7 0 1.35-.64 1.35-1.37 0-.73-.64-1.38-1.36-1.38zm-12.98-8.25c-.72 0-1.36.57-1.36 1.37 0 .73.64 1.38 1.36 1.38.8 0 1.44-.65 1.44-1.38-.08-.72-.64-1.37-1.44-1.37zm5.2-15.28c-.8 0-1.36.65-1.36 1.46 0 .73.56 1.37 1.36 1.37s1.36-.64 1.36-1.37v-.08c0-.73-.64-1.38-1.36-1.38z" stroke="#fff" stroke-opacity="0" fill="#fff"/><use xlink:href="#k" transform="matrix(1,0,0,1,1537.716535433071,809) translate(0.6790123456790127 17.77777777777778)"/><use xlink:href="#l" transform="matrix(1,0,0,1,1537.716535433071,809) translate(118.95061728395062 17.77777777777778)"/><use xlink:href="#m" transform="matrix(1,0,0,1,1537.716535433071,809) translate(9.197530864197518 44.44444444444444)"/><use xlink:href="#n" transform="matrix(1,0,0,1,1537.716535433071,809) translate(61.04938271604937 44.44444444444444)"/><path d="M1067.72 362h120v120h-120V362z" stroke="#000" stroke-opacity="0" fill="url(#o)"/><path d="M1113.27 436.3c-.33-.4-.58-.88-.58-1.35 0-.47.24-.95.57-1.28 2.56-2.57 4.13-6.88 4.13-11.67 0-4.8-1.57-9.1-4.13-11.67-.33-.33-.58-.8-.58-1.28 0-.47.24-.94.57-1.35.74-.67 1.9-.67 2.64 0 5.54 5.47 18.17 5.47 23.7 0 .67-.67 1.9-.67 2.65 0 .33.4.5.88.5 1.35 0 .47-.17.95-.5 1.28-2.64 2.57-4.13 6.88-4.13 11.67 0 4.8 1.5 9.1 4.13 11.67.33.33.5.8.5 1.28 0 .47-.17.94-.5 1.35-.42.33-.9.54-1.32.54-.5 0-1-.2-1.33-.54-5.53-5.47-18.16-5.47-23.7 0-.73.67-1.9.67-2.63 0zm35.9 6.94c3.3-3.23 5.3-6.47 6.78-10.72l3.55 1.22c-1.65 4.78-3.96 8.43-7.68 12.13-6.68 6.55-15.43 9.85-24.2 9.85-8.74 0-17.5-3.3-24.18-9.85-3.46-3.44-5.7-7-7.5-12.13l3.54-1.22c1.65 4.6 3.55 7.7 6.6 10.72 11.9 11.74 31.2 11.74 43.1 0zm-49.7-31.76l-3.54-1.22c1.82-5.05 4.05-8.7 7.5-12.13 13.4-13.15 35.02-13.15 48.4 0 3.63 3.64 6.02 7.35 7.67 12.13l-3.55 1.22c-1.48-4.25-3.55-7.5-6.77-10.72-11.9-11.74-31.2-11.74-43.1 0-3.05 3.03-4.95 6.13-6.6 10.72zm67.05 16.4c-1.65 1.6-3.8 2.42-5.94 2.42-2.15 0-4.3-.8-5.95-2.43-1.65-1.55-2.48-3.64-2.48-5.87s.83-4.32 2.48-5.87c1.57-1.55 3.72-2.43 5.94-2.43 2.24 0 4.38.88 5.95 2.43 3.3 3.24 3.3 8.5 0 11.74zm-65.72.06c-1.57 1.55-3.7 2.42-5.94 2.42-2.23 0-4.38-.87-5.95-2.43-3.3-3.23-3.3-8.5 0-11.8 1.58-1.55 3.73-2.43 5.96-2.43s4.37.88 5.94 2.43c3.3 3.3 3.3 8.57 0 11.8zm20.3-5.94c0 2.76-.4 5.4-1.23 7.76 2.48-.8 5.2-1.22 7.85-1.22 2.72 0 5.44.4 7.92 1.22-.82-2.37-1.32-5-1.32-7.76s.5-5.4 1.32-7.76c-4.95 1.62-10.8 1.62-15.77 0 .83 2.37 1.24 5 1.24 7.76zm-8.66 6.6l-3.13-2.08 1.82-2.7h-5.86v-3.64h5.86l-1.8-2.7 3.12-2.02 3.72 5.53c.4.6.4 1.4 0 2.08zm33.77 0l-3.13-2.08 1.82-2.7h-5.87v-3.64h5.86l-1.83-2.7 3.14-2.1 3.72 5.6c.42.62.42 1.42 0 2.03zm17.68-9.84c-.9-.87-2.07-1.35-3.3-1.35-1.24 0-2.4.5-3.3 1.36-.9.88-1.4 2.03-1.4 3.24 0 1.2.48 2.43 1.4 3.3 1.8 1.76 4.78 1.76 6.6 0 1.8-1.82 1.8-4.78 0-6.54zm-65.72 0c-.9-.87-2.06-1.35-3.3-1.35-1.24 0-2.4.5-3.3 1.36-1.82 1.82-1.82 4.72 0 6.55 1.73 1.76 4.87 1.76 6.6 0 1.82-1.82 1.82-4.72 0-6.54z" stroke="#000" stroke-opacity="0" fill="#fff"/><use xlink:href="#p" transform="matrix(1,0,0,1,1037.716535433071,491.00000000000006) translate(0.9703703703704036 17.955555555555552)"/><use xlink:href="#q" transform="matrix(1,0,0,1,1037.716535433071,491.00000000000006) translate(68.17901234567903 17.955555555555552)"/><use xlink:href="#r" transform="matrix(1,0,0,1,1037.716535433071,491.00000000000006) translate(56.33333333333334 44.888888888888886)"/><path d="M847.72 362h120v120h-120V362z" stroke="#fff" stroke-opacity="0" stroke-width="2" fill="#d86613"/><path d="M944.52 462H924.8c-.64 0-1.15-.32-1.4-.88l-27.92-58.32H883.7c-.9 0-1.6-.72-1.6-1.6v-17.6c0-.88.7-1.6 1.6-1.6h24.65c.64 0 1.15.32 1.4.88l27.8 58.32h6.97c.9 0 1.6.72 1.6 1.6v17.6c0 .88-.7 1.6-1.6 1.6zm-18.7-3.2h17.1v-14.4h-6.4c-.65 0-1.16-.32-1.4-.88l-27.8-58.32H885.3v14.4h11.2c.64 0 1.16.32 1.48.88z" stroke="#fff" stroke-opacity="0" stroke-width="2" fill="#fff"/><path d="M891.67 462H870.9c-.58 0-1.07-.3-1.4-.73-.3-.54-.3-1.12-.06-1.6l21.77-45.46c.26-.58.83-.92 1.43-.92.64 0 1.17.34 1.45.88l10.4 21.43c.26.43.26.92 0 1.4L893.13 461c-.2.63-.77 1.02-1.45 1.02zm-18.23-3.22h17.24l10.6-22.36-8.62-17.88z" stroke="#fff" stroke-opacity="0" stroke-width="2" fill="#fff"/><use xlink:href="#s" transform="matrix(1,0,0,1,817.7165354330707,491.00000000000006) translate(21.944444444444443 17.77777777777778)"/><use xlink:href="#t" transform="matrix(1,0,0,1,817.7165354330707,491.00000000000006) translate(77.87037037037035 17.77777777777778)"/><path d="M1567.72 900h120v120h-120V900z" stroke="#fff" stroke-opacity="0" fill="#1c7b68"/><path d="M1637.72 1000.42c-.32 0-.56-.08-.8-.25l-9.2-5.5-9.2 5.5c-.5.33-1.05.33-1.6 0l-18.82-11.47c-.47-.33-.72-.8-.72-1.38v-11.48l-8.88-5c-.48-.25-.8-.82-.8-1.38v-18.92c0-.56.32-1.13.8-1.37l8.8-5v-11.5c0-.55.24-1.12.8-1.36l18.8-11.47c.5-.32 1.05-.32 1.6 0l9.14 5.5 9.2-5.5c.48-.32 1.04-.32 1.6 0l18.9 11.48c.47.33.7.82.7 1.38v11.48l8.9 5c.47.25.8.82.8 1.38v18.92c0 .56-.33 1.13-.8 1.37l-8.8 5v11.5c0 .56-.33 1.12-.8 1.37l-18.82 11.47c-.24.17-.48.25-.8.25zm-8.4-8.5l8.4 5.02 17.2-10.5v-11.57c0-.56.33-1.05.8-1.37l7.13-4.04-6-3.24c-1.92 1.62-4.8 1.38-6.48-.48-1.6-1.94-1.44-4.85.48-6.55 2-1.62 4.88-1.38 6.48.48.8.9 1.12 1.86 1.12 3.07v.65l6.16 3.4v-15.37l-8.87-4.93c-.56-.32-.8-.8-.8-1.37v-4.37h-4.48c-.88 2.43-3.53 3.64-5.93 2.75-2.32-.88-3.6-3.54-2.72-5.9.96-2.4 3.6-3.63 5.92-2.74 1.37.5 2.24 1.46 2.73 2.75h4.48v-4.03l-17.2-10.5-8.4 5v17.63l8.87 5.1c2-1.47 4.88-1.06 6.4.96 1.52 2.02 1.12 4.85-.88 6.38-2 1.54-4.88 1.13-6.4-.9-.64-.88-.96-1.76-.96-2.74 0-.4.08-.64.16-.97l-9.6-5.5c-.48-.3-.8-.8-.8-1.45v-18.5l-8.4-5.02-7.6 4.6V939h-3.2v-9.4l-6.4 3.97v10.67l8 4.53 8-4.53V936h3.2v9.13c0 .57-.33 1.05-.8 1.37l-8.8 4.93v7.68l8.8 5.75c.47.32.7.8.7 1.38v5.33l6.42-3.8v-6.8l-8.4-5 1.6-2.75 9.28 5.5c.48.33.8.82.8 1.38v20.77h7.28c.88-2.34 3.52-3.55 5.92-2.66 1.84.63 2.96 2.33 2.96 4.27-.16 2.6-2.4 4.53-4.88 4.37-1.84-.17-3.28-1.13-4-2.75h-7.36zm-18.25.9l6.64 4.04 8.42-5v-20.38l-17.85 10.6-1.6-2.84 9.84-5.82v-6.4l-8-5.24-8.95 5.1-1.6-2.84 9.04-5v-7.6l-8.02-4.53-8 4.53v5.9l6.8-4.04 1.6 2.74-8.48 4.93v7.52l8 4.5 8.1-4.75 1.6 2.74-8.1 4.76v10.67l7.2 4.45 8.33-4.93.16.16.3-.23 1.6 2.75zm29.85-11.88c-.72 0-1.36.64-1.36 1.37 0 .82.64 1.47 1.36 1.47.8 0 1.44-.65 1.44-1.46-.08-.72-.64-1.28-1.44-1.28zm12.97-19.65c-.8 0-1.45.56-1.45 1.37 0 .73.64 1.37 1.44 1.37.7 0 1.35-.64 1.35-1.37 0-.73-.64-1.38-1.36-1.38zm-12.98-8.25c-.72 0-1.36.57-1.36 1.37 0 .73.64 1.38 1.36 1.38.8 0 1.44-.65 1.44-1.38-.08-.72-.64-1.37-1.44-1.37zm5.2-15.28c-.8 0-1.36.65-1.36 1.46 0 .73.56 1.37 1.36 1.37s1.36-.64 1.36-1.37v-.08c0-.73-.64-1.38-1.36-1.38z" stroke="#fff" stroke-opacity="0" fill="#fff"/><use xlink:href="#u" transform="matrix(1,0,0,1,1537.716535433071,1029) translate(12.56172839506172 17.77777777777778)"/><use xlink:href="#v" transform="matrix(1,0,0,1,1537.716535433071,1029) translate(81.63580246913578 17.77777777777778)"/><use xlink:href="#m" transform="matrix(1,0,0,1,1537.716535433071,1029) translate(9.197530864197518 44.44444444444444)"/><use xlink:href="#n" transform="matrix(1,0,0,1,1537.716535433071,1029) translate(61.04938271604937 44.44444444444444)"/><path d="M563.15 1020h120v120h-120v-120z" stroke="#fff" stroke-opacity="0" stroke-width="2" fill="#d86613"/><path d="M659.95 1120h-19.72c-.64 0-1.15-.32-1.4-.88l-27.92-58.32h-11.77c-.9 0-1.6-.72-1.6-1.6v-17.6c0-.88.7-1.6 1.6-1.6h24.65c.64 0 1.15.32 1.4.88l27.8 58.32h6.97c.9 0 1.6.72 1.6 1.6v17.6c0 .88-.7 1.6-1.6 1.6zm-18.7-3.2h17.1v-14.4h-6.4c-.64 0-1.16-.32-1.4-.88l-27.8-58.32h-22.02v14.4h11.2c.65 0 1.16.32 1.48.88z" stroke="#fff" stroke-opacity="0" stroke-width="2" fill="#fff"/><path d="M607.1 1120h-20.78c-.56 0-1.06-.3-1.38-.73-.32-.54-.32-1.12-.07-1.6l21.77-45.46c.25-.58.82-.92 1.42-.92.64 0 1.17.34 1.45.88l10.42 21.43c.25.43.25.92 0 1.4L608.56 1119c-.2.63-.78 1.02-1.45 1.02zm-18.23-3.22h17.24l10.6-22.36-8.6-17.88z" stroke="#fff" stroke-opacity="0" stroke-width="2" fill="#fff"/><use xlink:href="#s" transform="matrix(1,0,0,1,533.1496062992125,1149) translate(21.944444444444443 17.77777777777778)"/><use xlink:href="#t" transform="matrix(1,0,0,1,533.1496062992125,1149) translate(77.87037037037035 17.77777777777778)"/><path d="M312.73 839.58l1 .24.94.4.87.52.77.66.68.78.53.87.4.94.24.98.08 1v228l.07.88.2.84.32.8.45.73.56.66.66.55.72.45.8.33.84.2.88.07h87.38v1H323.7l-1-.08-1-.24-.94-.4-.87-.52-.78-.66-.66-.78-.54-.87-.4-.94-.22-.98-.08-1v-228l-.07-.88-.2-.84-.33-.8-.45-.73-.56-.66-.65-.55-.74-.45-.78-.33-.84-.2-.88-.07h-63.48v-1h63.52zm234.04 239.92v1h-82.4v-1z" stroke="#3a414a" stroke-width=".05" fill="#3a414a"/><path d="M248.23 840.5h-.5v-1h.5z" fill="#3a414a"/><path d="M248.25 840.52h-.56v-1.04h.55zm-.5-1v.96h.45v-.96z" stroke="#3a414a" stroke-width=".05" fill="#3a414a"/><path d="M561.53 1080l-14.26 4.63v-9.27z" fill="#3a414a"/><path d="M563.15 1080l-16.38 5.32v-10.64zm-15.38 3.95l12.14-3.95-12.13-3.95z" stroke="#3a414a" stroke-width=".05" fill="#3a414a"/><use xlink:href="#w" transform="matrix(1,0,0,1,411.124360262341,1069.3333333333333) translate(0 14.222222222222223)"/><path d="M847.72 1020h120v120h-120v-120z" stroke="#fff" stroke-opacity="0" stroke-width="2" fill="#3b48cc"/><path d="M928.13 1084.78l-10.6 10.55c2-.56 3.63-1.2 5.48-2.24 1.1.63 1.7 1.67 1.92 2.87 0 2.96-6.2 6.16-15.4 7.43-3.05.4-5.55.56-8.6.56h-1.58c-12.95-.24-22.42-4.3-22.42-8 .16-1.2.82-2.15 1.9-2.87 5 2.8 13.17 4.47 22.1 4.47h.16l.93-3.2h-1.08c-8.82 0-16.98-1.76-21.28-4.47-1.74-1.12-2.72-2.4-2.72-3.44v-7.43c4.9 3.75 14.64 5.67 24 5.67 1.25 0 2.5 0 3.75-.08l.93-3.2c-1.63.08-3.1.16-4.68.16-13.7 0-24-4.23-24-8 .16-1.27.82-2.23 1.9-2.87 4.4 2.5 11.2 4 18.9 4.4l.1-3.2c-7.57-.4-14.42-2-18.18-4.47-1.74-1.04-2.67-2.3-2.72-3.43v-7.36c4.9 3.76 14.64 5.68 24 5.68h.33l1.74-3.2h-2.08c-13.7 0-24-4.16-24-8 0-3.75 10.3-8 24-8 4.84 0 8.98.5 13.7 1.6h8.83c-4.85-2.94-13.12-4.78-22.53-4.78-13.17 0-27.2 3.9-27.2 11.2V1064c.1 1.9.9 3.5 2.44 4.7-1.53 1.3-2.34 2.9-2.45 4.8v12.8c.12 2 .93 3.6 2.46 4.88-1.53 1.2-2.34 2.8-2.45 4.8v13.1c.44 7.04 14.2 10.8 27.22 10.8 13 0 26.77-3.77 27.2-10.88V1095.88c-.04-1.9-.92-3.6-2.44-4.8v.02c1.52-1.2 2.34-2.88 2.45-4.8zm-3.2 23.98c0 3.76-10.3 8-24 8-13.72 0-24-4.16-24-8v-7.35c4.9 3.68 14.63 5.68 24 5.68 9.35 0 19.1-2 24-5.67z" stroke="#fff" stroke-opacity="0" stroke-width="2" fill="#fff"/><path d="M883.72 1064.03c0 1.1-.9 2-2 2s-2-.9-2-2 .9-2 2-2 2 .9 2 2zM883.72 1086.43c0 1.1-.9 2-2 2s-2-.9-2-2 .9-2 2-2 2 .9 2 2zM883.72 1108.83c0 1.1-.9 2-2 2s-2-.9-2-2 .9-2 2-2 2 .9 2 2zM904.9 1102.37c-.28 0-.52-.06-.8-.22-.64-.38-.92-1.14-.72-1.85l8.98-29.95h-9.06c-.88.06-1.6-.65-1.6-1.58 0-.27.04-.54.2-.76l9.58-19.2c.28-.56.8-.88 1.44-.88h20.8c.9-.06 1.62.65 1.65 1.52.04.22 0 .38-.03.6l-4.13 12.25h9c.87.05 1.6.76 1.6 1.63 0 .43-.17.76-.45 1.1l-35.2 36.8c-.32.38-.73.54-1.25.54zm1-35.18h8.63c.52 0 .96.2 1.28.6.3.43.4.92.25 1.4l-7.7 25.6 28.03-29.24h-7.46c-.88 0-1.64-.65-1.68-1.52 0-.22 0-.44.08-.6l4.1-12.3H913.8z" stroke="#fff" stroke-opacity="0" stroke-width="2" fill="#fff"/><use xlink:href="#x" transform="matrix(1,0,0,1,817.7165354330707,1149) translate(26.913580246913575 17.77777777777778)"/><use xlink:href="#y" transform="matrix(1,0,0,1,817.7165354330707,1149) translate(63.51851851851852 44.44444444444444)"/><path d="M683.65 1044.3h147.68" stroke="#3a414a" fill="none"/><path d="M683.66 1044.8h-.5v-1h.5z" stroke="#3a414a" stroke-width=".05" fill="#3a414a"/><path d="M846.1 1044.3l-14.27 4.63v-9.27z" stroke="#3a414a" fill="#3a414a"/><path d="M726.76 1114h-27.23v-1h27.23zm120.46 0h-25.06v-1h25.06z" stroke="#3a414a" stroke-width=".05" fill="#3a414a"/><path d="M847.72 1114h-.52v-1h.52z" fill="#3a414a"/><path d="M847.74 1114.03h-.56v-1.05h.56zm-.5-1v.95h.45v-.95z" stroke="#3a414a" stroke-width=".05" fill="#3a414a"/><path d="M699.03 1118.14l-14.26-4.63 14.26-4.63z" fill="#3a414a"/><path d="M699.53 1118.83l-16.38-5.32 16.38-5.3zm-13.14-5.32l12.13 3.96v-7.9z" stroke="#3a414a" stroke-width=".05" fill="#3a414a"/><use xlink:href="#z" transform="matrix(1,0,0,1,726.7579016913303,1092.1757818918793) translate(0.005000000000002558 14.222222222222223)"/><use xlink:href="#A" transform="matrix(1,0,0,1,726.7579016913303,1092.1757818918793) translate(29.511172839506173 35.55555555555556)"/><path d="M1167.72 900h120v120h-120V900z" stroke="#fff" stroke-opacity="0" stroke-width="2" fill="#3f8624"/><path d="M1266 964.06c-.45-2.48-3.3-4.25-5.3-5.53-.6-.4-2.3-1.04-2.44-1.6 0-.4 0-.8.15-1.2l1.63-11.46c.45-3.36.9-6.73 1.38-10.17.4-3.05-1.07-5.13-3.6-6.9-5.14-3.6-11.88-5.04-17.94-6-7.97-1.28-14.95-1.52-23-.72-7.28.48-13.34 1.92-20.1 4.8-3.36 1.6-7.88 4.1-7.27 8.42 1.52 12.97 3.44 25.95 5.2 38.93.77 5.93 1.6 11.86 2.38 17.8.3 2.47 1.7 4.4 4 5.35 4.9 2.65 11.03 3.45 16.62 3.93 7.75.73 14.34.5 22-.95 4.6-.8 13.2-2.25 13.96-8 .92-7.14 1.92-14.27 2.84-21.4l.38-2.17c2.6.65 10.04 2 9.13-3.12zm-40.63-40.86c9.66 0 20.62 1.12 29.2 5.85 1.4.72 4.46 2.32 3.54 4.33-.9 1.92-3.82 2.88-5.6 3.6-2.6.96-4.97 1.6-7.73 2.16-11.96 2.4-22.54 2.65-34.66.73-5.43-.57-9.95-1.93-14.86-4.33-1.15-.72-3.07-1.84-2.53-3.45.4-.9 1-1.53 1.85-2 3.76-2.4 7.2-3.85 11.58-4.65 6.6-1.6 12.42-2.33 19.24-2.25zm25.15 67.46c-.3 1.84-3.38 2.8-4.83 3.28-3.23 1.12-6.07 1.76-9.44 2.16-7.44.97-13.88.97-21.4 0-4.67-.4-8.58-1.44-12.8-3.52-1.15-.48-1.84-1.52-1.9-2.73-1.62-12.73-3.4-25.4-5.15-38.05l-1.83-13.78c3.83 2.1 7.36 3.37 11.65 4.1 4.68.95 8.6 1.43 13.34 1.75 9.2.64 17.1.24 26.22-1.44 4.83-.72 8.82-2.08 13.1-4.4l-3.36 25.07c-8.6-2.8-15.64-5.6-23.7-9.54-.37-.16-.68-.32-1-.48-.45-.32-.3-.16-.52-.64-.4-.96-.46-1.6-1.3-2.4-.77-.56-1.62-.8-2.54-.72-2 .08-3.52 1.84-3.37 3.84.14 1.93 1.9 3.45 3.9 3.3.54-.1 1-.25 1.6-.5.62-.15.62-.15 1.24.17 8.2 4 15.33 6.97 24 9.85 1.22.4 1.22 0 1.22 1.04-.08.8-.15 1.53-.3 2.33l-1 7.6zm-24.7-37.9c0 .48-.6.4-.76.16-.23-.32.77-.72.77-.16zm31.52 11.22l.46-3.53c1.6.96 4.3 2.33 5.06 4.1-1.6.63-4.06-.17-5.52-.57z" stroke="#fff" stroke-opacity="0" stroke-width="2" fill="#fff"/><use xlink:href="#d" transform="matrix(1,0,0,1,1137.716535433071,1029) translate(1.2345679012345556 17.77777777777778)"/><use xlink:href="#h" transform="matrix(1,0,0,1,1137.716535433071,1029) translate(110.86419753086419 17.77777777777778)"/><path d="M40 6a6 6 0 0 1 6-6h928a6 6 0 0 1 6 6v166a6 6 0 0 1-6 6H46a6 6 0 0 1-6-6z" stroke="#000" stroke-opacity="0" fill="#fff" fill-opacity="0"/><use xlink:href="#B" transform="matrix(1,0,0,1,45,5) translate(0 95.08333333333331)"/><use xlink:href="#C" transform="matrix(1,0,0,1,45,5) translate(258.74074074074065 95.08333333333331)"/><use xlink:href="#D" transform="matrix(1,0,0,1,45,5) translate(532.9074074074072 95.08333333333331)"/><use xlink:href="#E" transform="matrix(1,0,0,1,45,5) translate(662.2777777777775 95.08333333333331)"/><use xlink:href="#F" transform="matrix(1,0,0,1,45,5) translate(827.0370370370367 95.08333333333331)"/><path d="M1067.72 66.67a6 6 0 0 1 6-6h428a6 6 0 0 1 6 6V258a6 6 0 0 1-6 6h-428a6 6 0 0 1-6-6z" stroke="#000" stroke-opacity="0" fill="#fff" fill-opacity="0"/><use xlink:href="#G" transform="matrix(1,0,0,1,1072.716535433071,65.66666666666674) translate(0 23.84027777777778)"/><use xlink:href="#H" transform="matrix(1,0,0,1,1072.716535433071,65.66666666666674) translate(7.222222222222221 50.50694444444445)"/><use xlink:href="#I" transform="matrix(1,0,0,1,1072.716535433071,65.66666666666674) translate(22.22222222222222 50.50694444444445)"/><use xlink:href="#J" transform="matrix(1,0,0,1,1072.716535433071,65.66666666666674) translate(98.64197530864197 50.50694444444445)"/><use xlink:href="#H" transform="matrix(1,0,0,1,1072.716535433071,65.66666666666674) translate(7.222222222222221 77.17361111111111)"/><use xlink:href="#K" transform="matrix(1,0,0,1,1072.716535433071,65.66666666666674) translate(22.22222222222222 77.17361111111111)"/><use xlink:href="#L" transform="matrix(1,0,0,1,1072.716535433071,65.66666666666674) translate(95.80246913580245 77.17361111111111)"/><use xlink:href="#M" transform="matrix(1,0,0,1,1072.716535433071,65.66666666666674) translate(132.8395061728395 77.17361111111111)"/><use xlink:href="#N" transform="matrix(1,0,0,1,1072.716535433071,65.66666666666674) translate(248.7037037037037 77.17361111111111)"/><use xlink:href="#O" transform="matrix(1,0,0,1,1072.716535433071,65.66666666666674) translate(291.91358024691357 77.17361111111111)"/><use xlink:href="#H" transform="matrix(1,0,0,1,1072.716535433071,65.66666666666674) translate(7.222222222222221 103.8402777777778)"/><use xlink:href="#u" transform="matrix(1,0,0,1,1072.716535433071,65.66666666666674) translate(22.22222222222222 103.8402777777778)"/><use xlink:href="#P" transform="matrix(1,0,0,1,1072.716535433071,65.66666666666674) translate(91.29629629629628 103.8402777777778)"/><use xlink:href="#Q" transform="matrix(1,0,0,1,1072.716535433071,65.66666666666674) translate(183.2716049382716 103.8402777777778)"/><use xlink:href="#R" transform="matrix(1,0,0,1,1072.716535433071,65.66666666666674) translate(221.48148148148147 103.8402777777778)"/><use xlink:href="#S" transform="matrix(1,0,0,1,1072.716535433071,65.66666666666674) translate(252.34567901234567 103.8402777777778)"/><use xlink:href="#H" transform="matrix(1,0,0,1,1072.716535433071,65.66666666666674) translate(7.222222222222221 130.50694444444446)"/><use xlink:href="#u" transform="matrix(1,0,0,1,1072.716535433071,65.66666666666674) translate(22.22222222222222 130.50694444444446)"/><use xlink:href="#P" transform="matrix(1,0,0,1,1072.716535433071,65.66666666666674) translate(91.29629629629628 130.50694444444446)"/><use xlink:href="#T" transform="matrix(1,0,0,1,1072.716535433071,65.66666666666674) translate(183.2716049382716 130.50694444444446)"/><use xlink:href="#U" transform="matrix(1,0,0,1,1072.716535433071,65.66666666666674) translate(251.1728395061728 130.50694444444446)"/><use xlink:href="#V" transform="matrix(1,0,0,1,1072.716535433071,65.66666666666674) translate(339.9382716049382 130.50694444444446)"/><use xlink:href="#W" transform="matrix(1,0,0,1,1072.716535433071,65.66666666666674) translate(364.62962962962956 130.50694444444446)"/><use xlink:href="#X" transform="matrix(1,0,0,1,1072.716535433071,65.66666666666674) translate(22.22222222222222 157.17361111111111)"/><use xlink:href="#H" transform="matrix(1,0,0,1,1072.716535433071,65.66666666666674) translate(7.222222222222221 183.84027777777777)"/><use xlink:href="#Y" transform="matrix(1,0,0,1,1072.716535433071,65.66666666666674) translate(22.22222222222222 183.84027777777777)"/><use xlink:href="#Z" transform="matrix(1,0,0,1,1072.716535433071,65.66666666666674) translate(86.29629629629628 183.84027777777777)"/><use xlink:href="#aa" transform="matrix(1,0,0,1,1072.716535433071,65.66666666666674) translate(124.50617283950615 183.84027777777777)"/><path d="M723.54 420.5h-39.9v-1h39.9zm107.8 0h-47.7v-1h47.7z" stroke="#3a414a" stroke-width=".05" fill="#3a414a"/><path d="M683.66 420.5h-.5v-1h.5z" fill="#3a414a"/><path d="M683.7 420.52h-.58v-1.04h.57zm-.53-1v.96h.47v-.96z" stroke="#3a414a" stroke-width=".05" fill="#3a414a"/><path d="M846.1 420l-14.27 4.63v-9.26z" fill="#3a414a"/><path d="M847.72 420l-16.4 5.32v-10.64zm-15.4 3.95L844.5 420l-12.15-3.95z" stroke="#3a414a" stroke-width=".05" fill="#3a414a"/><use xlink:href="#ab" transform="matrix(1,0,0,1,723.5454242186327,398.6666666666667) translate(0.02969135802469225 14.222222222222223)"/><use xlink:href="#ac" transform="matrix(1,0,0,1,723.5454242186327,398.6666666666667) translate(0.004999999999999005 35.55555555555556)"/><path d="M1367.72 680h120v120h-120V680z" stroke="#fff" stroke-opacity="0" stroke-width="2" fill="#3f8624"/><path d="M1466 744.06c-.45-2.48-3.3-4.25-5.3-5.53-.6-.4-2.3-1.04-2.44-1.6 0-.4 0-.8.15-1.2l1.63-11.46c.45-3.36.9-6.73 1.38-10.17.4-3.05-1.07-5.13-3.6-6.9-5.14-3.6-11.88-5.04-17.94-6-7.97-1.28-14.95-1.52-23-.72-7.28.48-13.34 1.92-20.1 4.8-3.36 1.6-7.88 4.1-7.27 8.42 1.52 12.97 3.44 25.95 5.2 38.93.77 5.93 1.6 11.86 2.38 17.8.3 2.47 1.7 4.4 4 5.35 4.9 2.65 11.03 3.45 16.62 3.93 7.75.73 14.34.5 22-.95 4.6-.8 13.2-2.25 13.96-8 .92-7.14 1.92-14.27 2.84-21.4l.38-2.17c2.6.65 10.04 2 9.13-3.12zm-40.63-40.86c9.66 0 20.62 1.12 29.2 5.85 1.4.72 4.46 2.32 3.54 4.33-.9 1.92-3.82 2.88-5.6 3.6-2.6.96-4.97 1.6-7.73 2.16-11.96 2.4-22.54 2.65-34.66.73-5.43-.57-9.95-1.93-14.86-4.33-1.15-.72-3.07-1.84-2.53-3.45.4-.9 1-1.53 1.85-2 3.76-2.4 7.2-3.85 11.58-4.65 6.6-1.6 12.42-2.33 19.24-2.25zm25.15 67.46c-.3 1.84-3.38 2.8-4.83 3.28-3.23 1.12-6.07 1.76-9.44 2.16-7.44.97-13.88.97-21.4 0-4.67-.4-8.58-1.44-12.8-3.52-1.15-.48-1.84-1.52-1.9-2.73-1.62-12.73-3.4-25.4-5.15-38.05l-1.83-13.78c3.83 2.1 7.36 3.37 11.65 4.1 4.68.95 8.6 1.43 13.34 1.75 9.2.64 17.1.24 26.22-1.44 4.83-.72 8.82-2.08 13.1-4.4l-3.36 25.07c-8.6-2.8-15.64-5.6-23.7-9.54-.37-.16-.68-.32-1-.48-.45-.32-.3-.16-.52-.64-.4-.96-.46-1.6-1.3-2.4-.77-.56-1.62-.8-2.54-.72-2 .08-3.52 1.84-3.37 3.84.14 1.93 1.9 3.45 3.9 3.3.54-.1 1-.25 1.6-.5.62-.15.62-.15 1.24.17 8.2 4 15.33 6.97 24 9.85 1.22.4 1.22 0 1.22 1.04-.08.8-.15 1.53-.3 2.33l-1 7.6zm-24.7-37.9c0 .48-.6.4-.76.16-.23-.32.77-.72.77-.16zm31.52 11.22l.46-3.53c1.6.96 4.3 2.33 5.06 4.1-1.6.63-4.06-.17-5.52-.57z" stroke="#fff" stroke-opacity="0" stroke-width="2" fill="#fff"/><use xlink:href="#ad" transform="matrix(1,0,0,1,1337.716535433071,809) translate(9.907407407407405 17.77777777777778)"/><use xlink:href="#ae" transform="matrix(1,0,0,1,1337.716535433071,809) translate(72.37654320987653 17.77777777777778)"/><use xlink:href="#h" transform="matrix(1,0,0,1,1337.716535433071,809) translate(56.04938271604938 44.44444444444444)"/><path d="M563.15 780h120v120h-120V780z" stroke="#fff" stroke-opacity="0" stroke-width="2" fill="#d86613"/><path d="M659.95 880h-19.72c-.64 0-1.15-.32-1.4-.88L610.9 820.8h-11.77c-.9 0-1.6-.72-1.6-1.6v-17.6c0-.88.7-1.6 1.6-1.6h24.65c.64 0 1.15.32 1.4.88L653 859.2h6.97c.9 0 1.6.72 1.6 1.6v17.6c0 .88-.7 1.6-1.6 1.6zm-18.7-3.2h17.1v-14.4h-6.4c-.64 0-1.16-.32-1.4-.88l-27.8-58.32h-22.02v14.4h11.2c.65 0 1.16.32 1.48.88z" stroke="#fff" stroke-opacity="0" stroke-width="2" fill="#fff"/><path d="M607.1 880h-20.78c-.56 0-1.06-.3-1.38-.73-.32-.54-.32-1.12-.07-1.6l21.77-45.46c.25-.58.82-.92 1.42-.92.64 0 1.17.34 1.45.88l10.42 21.43c.25.43.25.92 0 1.4L608.56 879c-.2.63-.78 1.02-1.45 1.02zm-18.23-3.22h17.24l10.6-22.36-8.6-17.88z" stroke="#fff" stroke-opacity="0" stroke-width="2" fill="#fff"/><use xlink:href="#s" transform="matrix(1,0,0,1,533.1496062992125,909) translate(21.944444444444443 17.77777777777778)"/><use xlink:href="#t" transform="matrix(1,0,0,1,533.1496062992125,909) translate(77.87037037037035 17.77777777777778)"/><path d="M391.63 840.5h-143.4v-1h143.4zm155.14 0H419.24v-1h127.53z" stroke="#3a414a" stroke-width=".05" fill="#3a414a"/><path d="M248.23 840.5h-.5v-1h.5z" fill="#3a414a"/><path d="M248.25 840.52h-.56v-1.04h.55zm-.5-1v.96h.45v-.96z" stroke="#3a414a" stroke-width=".05" fill="#3a414a"/><path d="M561.53 840l-14.26 4.63v-9.26z" fill="#3a414a"/><path d="M563.15 840l-16.38 5.32v-10.64zm-15.38 3.95L559.9 840l-12.13-3.95z" stroke="#3a414a" stroke-width=".05" fill="#3a414a"/><use xlink:href="#af" transform="matrix(1,0,0,1,391.63060173033915,829.3333333333334) translate(0 14.222222222222223)"/><path d="M847.72 780h120v120h-120V780z" stroke="#fff" stroke-opacity="0" stroke-width="2" fill="#3f8624"/><path d="M946 844.06c-.46-2.48-3.3-4.25-5.28-5.53-.62-.4-2.3-1.04-2.46-1.6 0-.4 0-.8.15-1.2l1.63-11.46 1.38-10.17c.4-3.05-1.07-5.13-3.6-6.9-5.14-3.6-11.88-5.04-17.94-6-7.97-1.28-14.95-1.52-23-.72-7.28.48-13.34 1.92-20.1 4.8-3.36 1.6-7.88 4.1-7.27 8.42 1.52 12.97 3.44 25.95 5.2 38.93.77 5.93 1.6 11.86 2.38 17.8.3 2.47 1.7 4.4 4 5.35 4.9 2.65 11.03 3.45 16.62 3.93 7.75.73 14.34.5 22-.95 4.6-.8 13.2-2.25 13.96-8 .92-7.14 1.92-14.27 2.84-21.4l.38-2.17c2.6.65 10.04 2 9.13-3.12zm-40.63-40.86c9.66 0 20.62 1.12 29.2 5.85 1.4.72 4.46 2.32 3.54 4.33-.9 1.92-3.83 2.88-5.6 3.6-2.6.96-4.97 1.6-7.73 2.16-11.96 2.4-22.54 2.65-34.66.73-5.43-.57-9.95-1.93-14.86-4.33-1.15-.72-3.07-1.84-2.53-3.45.4-.9 1-1.53 1.85-2 3.76-2.4 7.2-3.85 11.58-4.65 6.6-1.6 12.42-2.33 19.24-2.25zm25.15 67.46c-.3 1.84-3.38 2.8-4.83 3.28-3.23 1.12-6.07 1.76-9.44 2.16-7.44.97-13.88.97-21.4 0-4.67-.4-8.58-1.44-12.8-3.52-1.15-.48-1.84-1.52-1.9-2.73-1.62-12.73-3.4-25.4-5.15-38.05l-1.83-13.78c3.83 2.1 7.36 3.37 11.65 4.1 4.68.95 8.6 1.43 13.34 1.75 9.2.64 17.1.24 26.22-1.44 4.83-.72 8.82-2.08 13.12-4.4l-3.38 25.07c-8.6-2.8-15.64-5.6-23.7-9.54-.37-.16-.68-.32-1-.48-.45-.32-.3-.16-.52-.64-.4-.96-.46-1.6-1.3-2.4-.77-.56-1.62-.8-2.54-.72-2 .08-3.52 1.84-3.37 3.84.14 1.93 1.9 3.45 3.9 3.3.54-.1 1-.25 1.6-.5.62-.15.62-.15 1.24.17 8.2 4 15.33 6.97 24 9.85 1.22.4 1.22 0 1.22 1.04-.07.8-.15 1.53-.3 2.33l-1 7.6zm-24.7-37.9c0 .48-.6.4-.76.16-.23-.32.77-.72.77-.16zm31.52 11.22l.46-3.53c1.6.96 4.3 2.33 5.06 4.1-1.6.63-4.06-.17-5.52-.57z" stroke="#fff" stroke-opacity="0" stroke-width="2" fill="#fff"/><use xlink:href="#f" transform="matrix(1,0,0,1,817.7165354330707,909) translate(34.5679012345679 17.77777777777778)"/><use xlink:href="#g" transform="matrix(1,0,0,1,817.7165354330707,909) translate(85.06172839506172 17.77777777777778)"/><use xlink:href="#h" transform="matrix(1,0,0,1,817.7165354330707,909) translate(56.04938271604938 44.44444444444444)"/><path d="M683.65 811.22h147.68" stroke="#3a414a" fill="none"/><path d="M683.66 811.72h-.5v-1h.5z" stroke="#3a414a" stroke-width=".05" fill="#3a414a"/><path d="M846.1 811.22l-14.27 4.64v-9.27z" stroke="#3a414a" fill="#3a414a"/><path d="M735.88 874.38h-36.35v-1h36.35zm111.34 0H795v-1h52.22z" stroke="#3a414a" stroke-width=".05" fill="#3a414a"/><path d="M847.72 874.38h-.52v-1h.52z" fill="#3a414a"/><path d="M847.74 874.4h-.56v-1.04h.56zm-.5-1v.96h.45v-.95z" stroke="#3a414a" stroke-width=".05" fill="#3a414a"/><path d="M699.03 878.52l-14.26-4.64 14.26-4.63z" fill="#3a414a"/><path d="M699.53 879.2l-16.38-5.32 16.38-5.32zm-13.14-5.32l12.13 3.95v-7.9z" stroke="#3a414a" stroke-width=".05" fill="#3a414a"/><g><use xlink:href="#ag" transform="matrix(1,0,0,1,735.8775153105861,852.5504744829857) translate(0.004999999999999005 14.222222222222223)"/><use xlink:href="#A" transform="matrix(1,0,0,1,735.8775153105861,852.5504744829857) translate(11.363024691358028 35.55555555555556)"/></g><path d="M107.72 368a6 6 0 0 1 6-6h148a6 6 0 0 1 6 6v108a6 6 0 0 1-6 6h-148a6 6 0 0 1-6-6z" stroke="#3a414a" fill="#fff"/><g><use xlink:href="#ah" transform="matrix(1,0,0,1,119.71653543307082,374.00000000000006) translate(28.154320987654323 53.77777777777778)"/></g><path d="M346.24 422.5h-77.52v-1h77.5zm200.53 0h-100.1v-1h100.1z" stroke="#3a414a" stroke-width=".05" fill="#3a414a"/><path d="M268.73 422.5h-.5v-1h.5z" fill="#3a414a"/><path d="M268.75 422.52h-.56v-1.04h.55zm-.5-1v.96h.45v-.96z" stroke="#3a414a" stroke-width=".05" fill="#3a414a"/><path d="M561.53 422l-14.26 4.63v-9.26z" fill="#3a414a"/><path d="M563.15 422l-16.38 5.32v-10.64zm-15.38 3.95L559.9 422l-12.13-3.95z" stroke="#3a414a" stroke-width=".05" fill="#3a414a"/><g><use xlink:href="#ai" transform="matrix(1,0,0,1,346.2348409446544,411.33333333333337) translate(0 14.222222222222223)"/><use xlink:href="#aj" transform="matrix(1,0,0,1,346.2348409446544,411.33333333333337) translate(64.0493827160494 14.222222222222223)"/></g><path d="M847.72 580h120v120h-120V580z" stroke="#fff" stroke-opacity="0" stroke-width="2" fill="#3b48cc"/><path d="M928.13 644.78l-10.6 10.55c2-.56 3.63-1.2 5.48-2.24 1.1.63 1.7 1.67 1.92 2.87 0 2.96-6.2 6.16-15.4 7.43-3.05.4-5.55.57-8.6.57h-1.58c-12.95-.25-22.42-4.32-22.42-8 .16-1.2.82-2.16 1.9-2.88 5 2.8 13.17 4.47 22.1 4.47h.16l.93-3.2h-1.08c-8.82 0-16.98-1.76-21.28-4.47-1.74-1.12-2.72-2.4-2.72-3.44v-7.44c4.9 3.76 14.64 5.68 24 5.68 1.25 0 2.5 0 3.75-.08l.93-3.2c-1.63.08-3.1.16-4.68.16-13.7 0-24-4.23-24-8 .16-1.27.82-2.23 1.9-2.87 4.4 2.5 11.2 4 18.9 4.4l.1-3.2c-7.57-.4-14.42-2-18.18-4.47-1.74-1.03-2.67-2.3-2.72-3.43v-7.36c4.9 3.76 14.64 5.68 24 5.68h.33l1.74-3.2h-2.08c-13.7 0-24-4.16-24-8 0-3.75 10.3-8 24-8 4.84 0 8.98.5 13.7 1.6h8.83c-4.85-2.95-13.12-4.78-22.53-4.78-13.17 0-27.2 3.9-27.2 11.2V624c.1 1.9.9 3.5 2.44 4.7-1.53 1.3-2.34 2.9-2.45 4.8v12.8c.12 2 .93 3.6 2.46 4.88-1.53 1.2-2.34 2.8-2.45 4.8v13.1c.44 7.03 14.2 10.8 27.22 10.8 13 0 26.77-3.76 27.2-10.88V655.88c-.04-1.9-.92-3.6-2.44-4.78 1.52-1.2 2.34-2.88 2.45-4.8zm-3.2 23.98c0 3.76-10.3 8-24 8-13.72 0-24-4.16-24-8v-7.35c4.9 3.68 14.63 5.68 24 5.68 9.35 0 19.1-2 24-5.67z" stroke="#fff" stroke-opacity="0" stroke-width="2" fill="#fff"/><path d="M883.72 624.03c0 1.1-.9 2-2 2s-2-.9-2-2 .9-2 2-2 2 .9 2 2zM883.72 646.43c0 1.1-.9 2-2 2s-2-.9-2-2 .9-2 2-2 2 .9 2 2zM883.72 668.83c0 1.1-.9 2-2 2s-2-.9-2-2 .9-2 2-2 2 .9 2 2zM904.9 662.37c-.28 0-.52-.06-.8-.22-.64-.38-.92-1.14-.72-1.85l8.98-29.95h-9.06c-.88.06-1.6-.65-1.6-1.58 0-.27.04-.54.2-.76l9.58-19.2c.28-.55.8-.88 1.44-.88h20.8c.9-.06 1.62.65 1.65 1.52.04.22 0 .38-.03.6l-4.13 12.25h9c.87.05 1.6.75 1.6 1.63 0 .43-.17.76-.45 1.1l-35.2 36.8c-.32.38-.73.54-1.25.54zm1-35.18h8.63c.52 0 .96.2 1.28.6.3.43.4.92.25 1.4l-7.7 25.6 28.03-29.24h-7.46c-.88 0-1.64-.65-1.68-1.52 0-.22 0-.44.08-.6l4.1-12.3H913.8z" stroke="#fff" stroke-opacity="0" stroke-width="2" fill="#fff"/><g><use xlink:href="#x" transform="matrix(1,0,0,1,817.7165354330707,709) translate(26.913580246913575 17.77777777777778)"/><use xlink:href="#y" transform="matrix(1,0,0,1,817.7165354330707,709) translate(63.51851851851852 44.44444444444444)"/></g><path d="M831.33 602.58H592.36l-.88.07-.84.2-.8.33-.73.45-.65.56-.56.65-.46.73-.33.8-.2.84-.06.88v171.4h-1V608.06l.08-1 .24-1 .4-.93.52-.87.66-.78.78-.66.87-.53.93-.4 1-.24 1-.08h239z" stroke="#3a414a" stroke-width=".05" fill="#3a414a"/><path d="M586.84 780h-1v-.5h1z" fill="#3a414a"/><path d="M586.87 780.02h-1.05v-.56h1.05zm-1-.5v.46h.95v-.47z" stroke="#3a414a" stroke-width=".05" fill="#3a414a"/><path d="M846.1 602.08l-14.27 4.63v-9.26z" fill="#3a414a"/><path d="M847.72 602.08l-16.4 5.32v-10.64zm-15.4 3.95l12.16-3.95-12.15-3.95zM677.98 673.15H665.1l-.87.07-.84.2-.8.33-.74.46-.66.56-.56.66-.45.74-.34.8-.2.83-.07.87v84.95h-1v-85l.07-.98.23-1 .4-.94.53-.87.66-.77.77-.67.87-.54.94-.4 1-.23 1-.08h12.9zm169.24 0h-48.05v-1h48.05z" stroke="#3a414a" stroke-width=".05" fill="#3a414a"/><path d="M847.72 673.15h-.52v-1h.52z" fill="#3a414a"/><path d="M847.74 673.18h-.56v-1.05h.56zm-.5-1v.95h.45v-.95z" stroke="#3a414a" stroke-width=".05" fill="#3a414a"/><path d="M659.1 778.38l-4.65-14.26h9.27z" fill="#3a414a"/><path d="M659.1 780l-5.34-16.38h10.65zm-3.96-15.38l3.95 12.14 3.93-12.14z" stroke="#3a414a" stroke-width=".05" fill="#3a414a"/><g><use xlink:href="#ak" transform="matrix(1,0,0,1,677.9807416125684,661.9864809679682) translate(0 14.222222222222223)"/></g><path d="M968.22 422h83.1" stroke="#3a414a" fill="none"/><path d="M968.23 422.5h-.5v-1h.5z" stroke="#3a414a" stroke-width=".05" fill="#3a414a"/><path d="M1066.1 422l-14.27 4.63v-9.26z" stroke="#3a414a" fill="#3a414a"/><path d="M1288.22 740h63.1" stroke="#3a414a" fill="none"/><path d="M1288.23 740.5h-.5v-1h.5z" stroke="#3a414a" stroke-width=".05" fill="#3a414a"/><path d="M1366.1 740l-14.27 4.63v-9.26z" stroke="#3a414a" fill="#3a414a"/><path d="M1488.22 740h63.1" stroke="#3a414a" fill="none"/><path d="M1488.23 740.5h-.5v-1h.5z" stroke="#3a414a" stroke-width=".05" fill="#3a414a"/><path d="M1566.1 740l-14.27 4.63v-9.26z" stroke="#3a414a" fill="#3a414a"/><path d="M1688.22 740h33.5a6 6 0 0 1 6 6v208.43a6 6 0 0 1-6 6h-17.62" stroke="#3a414a" fill="none"/><path d="M1688.23 740.5h-.5v-1h.5z" stroke="#3a414a" stroke-width=".05" fill="#3a414a"/><path d="M1689.34 960.43l14.26-4.63v9.27z" stroke="#3a414a" fill="#3a414a"/><path d="M1567.22 960H1304.1" stroke="#3a414a" fill="none"/><path d="M1567.72 960.5h-.52v-1h.52z" stroke="#3a414a" stroke-width=".05" fill="#3a414a"/><path d="M1289.34 960l14.26-4.63v9.26z" stroke="#3a414a" fill="#3a414a"/><path d="M1188.22 422h231.2a6 6 0 0 1 6 6v135.12" stroke="#3a414a" fill="none"/><path d="M1188.23 422.5h-.5v-1h.5z" stroke="#3a414a" stroke-width=".05" fill="#3a414a"/><path d="M1425.43 577.88l-4.63-14.26h9.27z" stroke="#3a414a" fill="#3a414a"/><path d="M1167.22 960h-133.5a6 6 0 0 0-6 6v108a6 6 0 0 1-6 6H984.1" stroke="#3a414a" fill="none"/><path d="M1167.72 960.5h-.52v-1h.52z" stroke="#3a414a" stroke-width=".05" fill="#3a414a"/><path d="M969.34 1080l14.26-4.63v9.27z" stroke="#3a414a" fill="#3a414a"/><defs><path fill="#cd2264" d="M205 0l-28-72H64L36 0H1l101-248h38L239 0h-34zm-38-99l-47-123c-12 45-31 82-46 123h93" id="al"/><path fill="#cd2264" d="M266 0h-40l-56-210L115 0H75L2-248h35L96-30l15-64 43-154h32l59 218 59-218h35" id="am"/><path fill="#cd2264" d="M185-189c-5-48-123-54-124 2 14 75 158 14 163 119 3 78-121 87-175 55-17-10-28-26-33-46l33-7c5 56 141 63 141-1 0-78-155-14-162-118-5-82 145-84 179-34 5 7 8 16 11 25" id="an"/><g id="a"><use transform="matrix(0.05,0,0,0.05,0,0)" xlink:href="#al"/><use transform="matrix(0.05,0,0,0.05,11.35,0)" xlink:href="#am"/><use transform="matrix(0.05,0,0,0.05,28.299999999999997,0)" xlink:href="#an"/></g><path fill="#cd2264" d="M59-47c-2 24 18 29 38 22v24C64 9 27 4 27-40v-127H5v-23h24l9-43h21v43h35v23H59v120" id="ao"/><path fill="#cd2264" d="M100-194c63 0 86 42 84 106H49c0 40 14 67 53 68 26 1 43-12 49-29l28 8c-11 28-37 45-77 45C44 4 14-33 15-96c1-61 26-98 85-98zm52 81c6-60-76-77-97-28-3 7-6 17-6 28h103" id="ap"/><path fill="#cd2264" d="M115-194c55 1 70 41 70 98S169 2 115 4C84 4 66-9 55-30l1 105H24l-1-265h31l2 30c10-21 28-34 59-34zm-8 174c40 0 45-34 45-75s-6-73-45-74c-42 0-51 32-51 76 0 43 10 73 51 73" id="aq"/><g id="b"><use transform="matrix(0.05,0,0,0.05,0,0)" xlink:href="#an"/><use transform="matrix(0.05,0,0,0.05,12,0)" xlink:href="#ao"/><use transform="matrix(0.05,0,0,0.05,17,0)" xlink:href="#ap"/><use transform="matrix(0.05,0,0,0.05,27,0)" xlink:href="#aq"/></g><path fill="#cd2264" d="M63-220v92h138v28H63V0H30v-248h175v28H63" id="ar"/><path fill="#cd2264" d="M84 4C-5 8 30-112 23-190h32v120c0 31 7 50 39 49 72-2 45-101 50-169h31l1 190h-30c-1-10 1-25-2-33-11 22-28 36-60 37" id="as"/><path fill="#cd2264" d="M117-194c89-4 53 116 60 194h-32v-121c0-31-8-49-39-48C34-167 62-67 57 0H25l-1-190h30c1 10-1 24 2 32 11-22 29-35 61-36" id="at"/><path fill="#cd2264" d="M96-169c-40 0-48 33-48 73s9 75 48 75c24 0 41-14 43-38l32 2c-6 37-31 61-74 61-59 0-76-41-82-99-10-93 101-131 147-64 4 7 5 14 7 22l-32 3c-4-21-16-35-41-35" id="au"/><path fill="#cd2264" d="M24-231v-30h32v30H24zM24 0v-190h32V0H24" id="av"/><path fill="#cd2264" d="M100-194c62-1 85 37 85 99 1 63-27 99-86 99S16-35 15-95c0-66 28-99 85-99zM99-20c44 1 53-31 53-75 0-43-8-75-51-75s-53 32-53 75 10 74 51 75" id="aw"/><g id="c"><use transform="matrix(0.05,0,0,0.05,0,0)" xlink:href="#ar"/><use transform="matrix(0.05,0,0,0.05,10.950000000000001,0)" xlink:href="#as"/><use transform="matrix(0.05,0,0,0.05,20.950000000000003,0)" xlink:href="#at"/><use transform="matrix(0.05,0,0,0.05,30.950000000000003,0)" xlink:href="#au"/><use transform="matrix(0.05,0,0,0.05,39.95,0)" xlink:href="#ao"/><use transform="matrix(0.05,0,0,0.05,44.95,0)" xlink:href="#av"/><use transform="matrix(0.05,0,0,0.05,48.900000000000006,0)" xlink:href="#aw"/><use transform="matrix(0.05,0,0,0.05,58.900000000000006,0)" xlink:href="#at"/></g><path fill="#3a414a" d="M127-220V0H93v-220H8v-28h204v28h-85" id="ax"/><path fill="#3a414a" d="M106-169C34-169 62-67 57 0H25v-261h32l-1 103c12-21 28-36 61-36 89 0 53 116 60 194h-32v-121c2-32-8-49-39-48" id="ay"/><path fill="#3a414a" d="M84 4C-5 8 30-112 23-190h32v120c0 31 7 50 39 49 72-2 45-101 50-169h31l1 190h-30c-1-10 1-25-2-33-11 22-28 36-60 37" id="az"/><path fill="#3a414a" d="M210-169c-67 3-38 105-44 169h-31v-121c0-29-5-50-35-48C34-165 62-65 56 0H25l-1-190h30c1 10-1 24 2 32 10-44 99-50 107 0 11-21 27-35 58-36 85-2 47 119 55 194h-31v-121c0-29-5-49-35-48" id="aA"/><path fill="#3a414a" d="M115-194c53 0 69 39 70 98 0 66-23 100-70 100C84 3 66-7 56-30L54 0H23l1-261h32v101c10-23 28-34 59-34zm-8 174c40 0 45-34 45-75 0-40-5-75-45-74-42 0-51 32-51 76 0 43 10 73 51 73" id="aB"/><path fill="#3a414a" d="M117-194c89-4 53 116 60 194h-32v-121c0-31-8-49-39-48C34-167 62-67 57 0H25l-1-190h30c1 10-1 24 2 32 11-22 29-35 61-36" id="aC"/><path fill="#3a414a" d="M141-36C126-15 110 5 73 4 37 3 15-17 15-53c-1-64 63-63 125-63 3-35-9-54-41-54-24 1-41 7-42 31l-33-3c5-37 33-52 76-52 45 0 72 20 72 64v82c-1 20 7 32 28 27v20c-31 9-61-2-59-35zM48-53c0 20 12 33 32 33 41-3 63-29 60-74-43 2-92-5-92 41" id="aD"/><path fill="#3a414a" d="M24-231v-30h32v30H24zM24 0v-190h32V0H24" id="aE"/><path fill="#3a414a" d="M24 0v-261h32V0H24" id="aF"/><g id="d"><use transform="matrix(0.06172839506172839,0,0,0.06172839506172839,0,0)" xlink:href="#ax"/><use transform="matrix(0.06172839506172839,0,0,0.06172839506172839,13.518518518518517,0)" xlink:href="#ay"/><use transform="matrix(0.06172839506172839,0,0,0.06172839506172839,25.864197530864196,0)" xlink:href="#az"/><use transform="matrix(0.06172839506172839,0,0,0.06172839506172839,38.20987654320987,0)" xlink:href="#aA"/><use transform="matrix(0.06172839506172839,0,0,0.06172839506172839,56.66666666666666,0)" xlink:href="#aB"/><use transform="matrix(0.06172839506172839,0,0,0.06172839506172839,69.01234567901234,0)" xlink:href="#aC"/><use transform="matrix(0.06172839506172839,0,0,0.06172839506172839,81.35802469135803,0)" xlink:href="#aD"/><use transform="matrix(0.06172839506172839,0,0,0.06172839506172839,93.70370370370371,0)" xlink:href="#aE"/><use transform="matrix(0.06172839506172839,0,0,0.06172839506172839,98.58024691358025,0)" xlink:href="#aF"/></g><path fill="#3a414a" d="M205 0l-28-72H64L36 0H1l101-248h38L239 0h-34zm-38-99l-47-123c-12 45-31 82-46 123h93" id="aG"/><path fill="#3a414a" d="M30-248c87 1 191-15 191 75 0 78-77 80-158 76V0H30v-248zm33 125c57 0 124 11 124-50 0-59-68-47-124-48v98" id="aH"/><path fill="#3a414a" d="M33 0v-248h34V0H33" id="aI"/><g id="e"><use transform="matrix(0.06172839506172839,0,0,0.06172839506172839,0,0)" xlink:href="#aG"/><use transform="matrix(0.06172839506172839,0,0,0.06172839506172839,14.814814814814813,0)" xlink:href="#aH"/><use transform="matrix(0.06172839506172839,0,0,0.06172839506172839,29.629629629629626,0)" xlink:href="#aI"/></g><path fill="#3a414a" d="M233-177c-1 41-23 64-60 70L243 0h-38l-65-103H63V0H30v-248c88 3 205-21 203 71zM63-129c60-2 137 13 137-47 0-61-80-42-137-45v92" id="aJ"/><path fill="#3a414a" d="M206 0h-36l-40-164L89 0H53L-1-190h32L70-26l43-164h34l41 164 42-164h31" id="aK"/><g id="f"><use transform="matrix(0.06172839506172839,0,0,0.06172839506172839,0,0)" xlink:href="#aJ"/><use transform="matrix(0.06172839506172839,0,0,0.06172839506172839,15.987654320987653,0)" xlink:href="#aD"/><use transform="matrix(0.06172839506172839,0,0,0.06172839506172839,28.333333333333332,0)" xlink:href="#aK"/></g><path fill="#3a414a" d="M240 0l2-218c-23 76-54 145-80 218h-23L58-218 59 0H30v-248h44l77 211c21-75 51-140 76-211h43V0h-30" id="aL"/><path fill="#3a414a" d="M100-194c63 0 86 42 84 106H49c0 40 14 67 53 68 26 1 43-12 49-29l28 8c-11 28-37 45-77 45C44 4 14-33 15-96c1-61 26-98 85-98zm52 81c6-60-76-77-97-28-3 7-6 17-6 28h103" id="aM"/><path fill="#3a414a" d="M85-194c31 0 48 13 60 33l-1-100h32l1 261h-30c-2-10 0-23-3-31C134-8 116 4 85 4 32 4 16-35 15-94c0-66 23-100 70-100zm9 24c-40 0-46 34-46 75 0 40 6 74 45 74 42 0 51-32 51-76 0-42-9-74-50-73" id="aN"/><g id="g"><use transform="matrix(0.06172839506172839,0,0,0.06172839506172839,0,0)" xlink:href="#aL"/><use transform="matrix(0.06172839506172839,0,0,0.06172839506172839,18.456790123456788,0)" xlink:href="#aM"/><use transform="matrix(0.06172839506172839,0,0,0.06172839506172839,30.80246913580247,0)" xlink:href="#aN"/><use transform="matrix(0.06172839506172839,0,0,0.06172839506172839,43.148148148148145,0)" xlink:href="#aE"/><use transform="matrix(0.06172839506172839,0,0,0.06172839506172839,48.02469135802469,0)" xlink:href="#aD"/></g><path fill="#3a414a" d="M160-131c35 5 61 23 61 61C221 17 115-2 30 0v-248c76 3 177-17 177 60 0 33-19 50-47 57zm-97-11c50-1 110 9 110-42 0-47-63-36-110-37v79zm0 115c55-2 124 14 124-45 0-56-70-42-124-44v89" id="aO"/><path fill="#3a414a" d="M96-169c-40 0-48 33-48 73s9 75 48 75c24 0 41-14 43-38l32 2c-6 37-31 61-74 61-59 0-76-41-82-99-10-93 101-131 147-64 4 7 5 14 7 22l-32 3c-4-21-16-35-41-35" id="aP"/><path fill="#3a414a" d="M143 0L79-87 56-68V0H24v-261h32v163l83-92h37l-77 82L181 0h-38" id="aQ"/><path fill="#3a414a" d="M59-47c-2 24 18 29 38 22v24C64 9 27 4 27-40v-127H5v-23h24l9-43h21v43h35v23H59v120" id="aR"/><g id="h"><use transform="matrix(0.06172839506172839,0,0,0.06172839506172839,0,0)" xlink:href="#aO"/><use transform="matrix(0.06172839506172839,0,0,0.06172839506172839,14.814814814814813,0)" xlink:href="#az"/><use transform="matrix(0.06172839506172839,0,0,0.06172839506172839,27.160493827160494,0)" xlink:href="#aP"/><use transform="matrix(0.06172839506172839,0,0,0.06172839506172839,38.27160493827161,0)" xlink:href="#aQ"/><use transform="matrix(0.06172839506172839,0,0,0.06172839506172839,49.38271604938272,0)" xlink:href="#aM"/><use transform="matrix(0.06172839506172839,0,0,0.06172839506172839,61.7283950617284,0)" xlink:href="#aR"/></g><path fill="#3a414a" d="M9 0v-24l116-142H16v-24h144v24L44-24h123V0H9" id="aS"/><path fill="#3a414a" d="M100-194c62-1 85 37 85 99 1 63-27 99-86 99S16-35 15-95c0-66 28-99 85-99zM99-20c44 1 53-31 53-75 0-43-8-75-51-75s-53 32-53 75 10 74 51 75" id="aT"/><g id="i"><use transform="matrix(0.06172839506172839,0,0,0.06172839506172839,0,0)" xlink:href="#aG"/><use transform="matrix(0.06172839506172839,0,0,0.06172839506172839,14.814814814814813,0)" xlink:href="#aA"/><use transform="matrix(0.06172839506172839,0,0,0.06172839506172839,33.2716049382716,0)" xlink:href="#aD"/><use transform="matrix(0.06172839506172839,0,0,0.06172839506172839,45.61728395061728,0)" xlink:href="#aS"/><use transform="matrix(0.06172839506172839,0,0,0.06172839506172839,56.72839506172839,0)" xlink:href="#aT"/><use transform="matrix(0.06172839506172839,0,0,0.06172839506172839,69.07407407407408,0)" xlink:href="#aC"/></g><path fill="#3a414a" d="M114-163C36-179 61-72 57 0H25l-1-190h30c1 12-1 29 2 39 6-27 23-49 58-41v29" id="aU"/><path fill="#3a414a" d="M135-143c-3-34-86-38-87 0 15 53 115 12 119 90S17 21 10-45l28-5c4 36 97 45 98 0-10-56-113-15-118-90-4-57 82-63 122-42 12 7 21 19 24 35" id="aV"/><g id="j"><use transform="matrix(0.06172839506172839,0,0,0.06172839506172839,0,0)" xlink:href="#ax"/><use transform="matrix(0.06172839506172839,0,0,0.06172839506172839,12.716049382716047,0)" xlink:href="#aU"/><use transform="matrix(0.06172839506172839,0,0,0.06172839506172839,20.061728395061728,0)" xlink:href="#aD"/><use transform="matrix(0.06172839506172839,0,0,0.06172839506172839,32.407407407407405,0)" xlink:href="#aC"/><use transform="matrix(0.06172839506172839,0,0,0.06172839506172839,44.75308641975308,0)" xlink:href="#aV"/><use transform="matrix(0.06172839506172839,0,0,0.06172839506172839,55.86419753086419,0)" xlink:href="#aP"/><use transform="matrix(0.06172839506172839,0,0,0.06172839506172839,66.9753086419753,0)" xlink:href="#aU"/><use transform="matrix(0.06172839506172839,0,0,0.06172839506172839,74.32098765432099,0)" xlink:href="#aE"/><use transform="matrix(0.06172839506172839,0,0,0.06172839506172839,79.19753086419753,0)" xlink:href="#aB"/><use transform="matrix(0.06172839506172839,0,0,0.06172839506172839,91.54320987654322,0)" xlink:href="#aM"/></g><path fill="#3a414a" d="M185-189c-5-48-123-54-124 2 14 75 158 14 163 119 3 78-121 87-175 55-17-10-28-26-33-46l33-7c5 56 141 63 141-1 0-78-155-14-162-118-5-82 145-84 179-34 5 7 8 16 11 25" id="aW"/><g id="k"><use transform="matrix(0.06172839506172839,0,0,0.06172839506172839,0,0)" xlink:href="#aW"/><use transform="matrix(0.06172839506172839,0,0,0.06172839506172839,14.814814814814813,0)" xlink:href="#az"/><use transform="matrix(0.06172839506172839,0,0,0.06172839506172839,27.160493827160494,0)" xlink:href="#aA"/><use transform="matrix(0.06172839506172839,0,0,0.06172839506172839,45.61728395061728,0)" xlink:href="#aA"/><use transform="matrix(0.06172839506172839,0,0,0.06172839506172839,64.07407407407406,0)" xlink:href="#aD"/><use transform="matrix(0.06172839506172839,0,0,0.06172839506172839,76.41975308641975,0)" xlink:href="#aU"/><use transform="matrix(0.06172839506172839,0,0,0.06172839506172839,83.76543209876543,0)" xlink:href="#aE"/><use transform="matrix(0.06172839506172839,0,0,0.06172839506172839,88.64197530864197,0)" xlink:href="#aS"/><use transform="matrix(0.06172839506172839,0,0,0.06172839506172839,99.75308641975309,0)" xlink:href="#aM"/></g><g id="l"><use transform="matrix(0.06172839506172839,0,0,0.06172839506172839,0,0)" xlink:href="#aL"/><use transform="matrix(0.06172839506172839,0,0,0.06172839506172839,18.456790123456788,0)" xlink:href="#aT"/><use transform="matrix(0.06172839506172839,0,0,0.06172839506172839,30.80246913580247,0)" xlink:href="#aN"/><use transform="matrix(0.06172839506172839,0,0,0.06172839506172839,43.148148148148145,0)" xlink:href="#aM"/><use transform="matrix(0.06172839506172839,0,0,0.06172839506172839,55.49382716049382,0)" xlink:href="#aF"/></g><path fill="#3a414a" d="M115-194c55 1 70 41 70 98S169 2 115 4C84 4 66-9 55-30l1 105H24l-1-265h31l2 30c10-21 28-34 59-34zm-8 174c40 0 45-34 45-75s-6-73-45-74c-42 0-51 32-51 76 0 43 10 73 51 73" id="aX"/><g id="m"><use transform="matrix(0.06172839506172839,0,0,0.06172839506172839,0,0)" xlink:href="#aW"/><use transform="matrix(0.06172839506172839,0,0,0.06172839506172839,14.814814814814813,0)" xlink:href="#aX"/><use transform="matrix(0.06172839506172839,0,0,0.06172839506172839,27.160493827160494,0)" xlink:href="#aT"/><use transform="matrix(0.06172839506172839,0,0,0.06172839506172839,39.50617283950617,0)" xlink:href="#aR"/></g><path fill="#3a414a" d="M101-234c-31-9-42 10-38 44h38v23H63V0H32v-167H5v-23h27c-7-52 17-82 69-68v24" id="aY"/><path fill="#3a414a" d="M177-190C167-65 218 103 67 71c-23-6-38-20-44-43l32-5c15 47 100 32 89-28v-30C133-14 115 1 83 1 29 1 15-40 15-95c0-56 16-97 71-98 29-1 48 16 59 35 1-10 0-23 2-32h30zM94-22c36 0 50-32 50-73 0-42-14-75-50-75-39 0-46 34-46 75s6 73 46 73" id="aZ"/><g id="n"><use transform="matrix(0.06172839506172839,0,0,0.06172839506172839,0,0)" xlink:href="#aI"/><use transform="matrix(0.06172839506172839,0,0,0.06172839506172839,6.172839506172839,0)" xlink:href="#aC"/><use transform="matrix(0.06172839506172839,0,0,0.06172839506172839,18.51851851851852,0)" xlink:href="#aY"/><use transform="matrix(0.06172839506172839,0,0,0.06172839506172839,24.691358024691358,0)" xlink:href="#aM"/><use transform="matrix(0.06172839506172839,0,0,0.06172839506172839,37.03703703703704,0)" xlink:href="#aU"/><use transform="matrix(0.06172839506172839,0,0,0.06172839506172839,44.382716049382715,0)" xlink:href="#aM"/><use transform="matrix(0.06172839506172839,0,0,0.06172839506172839,56.72839506172839,0)" xlink:href="#aC"/><use transform="matrix(0.06172839506172839,0,0,0.06172839506172839,69.07407407407408,0)" xlink:href="#aP"/><use transform="matrix(0.06172839506172839,0,0,0.06172839506172839,80.18518518518519,0)" xlink:href="#aE"/><use transform="matrix(0.06172839506172839,0,0,0.06172839506172839,85.06172839506173,0)" xlink:href="#aC"/><use transform="matrix(0.06172839506172839,0,0,0.06172839506172839,97.40740740740742,0)" xlink:href="#aZ"/></g><linearGradient gradientUnits="userSpaceOnUse" id="o" x1="1067.72" y1="482" x2="1187.72" y2="362"><stop offset="0%" stop-color="#b0084d"/><stop offset="100%" stop-color="#ff4f8b"/></linearGradient><path d="M240 0l2-218c-23 76-54 145-80 218h-23L58-218 59 0H30v-248h44l77 211c21-75 51-140 76-211h43V0h-30" id="ba"/><path d="M100-194c63 0 86 42 84 106H49c0 40 14 67 53 68 26 1 43-12 49-29l28 8c-11 28-37 45-77 45C44 4 14-33 15-96c1-61 26-98 85-98zm52 81c6-60-76-77-97-28-3 7-6 17-6 28h103" id="bb"/><path d="M85-194c31 0 48 13 60 33l-1-100h32l1 261h-30c-2-10 0-23-3-31C134-8 116 4 85 4 32 4 16-35 15-94c0-66 23-100 70-100zm9 24c-40 0-46 34-46 75 0 40 6 74 45 74 42 0 51-32 51-76 0-42-9-74-50-73" id="bc"/><path d="M24-231v-30h32v30H24zM24 0v-190h32V0H24" id="bd"/><path d="M141-36C126-15 110 5 73 4 37 3 15-17 15-53c-1-64 63-63 125-63 3-35-9-54-41-54-24 1-41 7-42 31l-33-3c5-37 33-52 76-52 45 0 72 20 72 64v82c-1 20 7 32 28 27v20c-31 9-61-2-59-35zM48-53c0 20 12 33 32 33 41-3 63-29 60-74-43 2-92-5-92 41" id="be"/><g id="p"><use transform="matrix(0.06234567901234567,0,0,0.06234567901234567,0,0)" xlink:href="#ba"/><use transform="matrix(0.06234567901234567,0,0,0.06234567901234567,18.641358024691353,0)" xlink:href="#bb"/><use transform="matrix(0.06234567901234567,0,0,0.06234567901234567,31.110493827160486,0)" xlink:href="#bc"/><use transform="matrix(0.06234567901234567,0,0,0.06234567901234567,43.57962962962962,0)" xlink:href="#bd"/><use transform="matrix(0.06234567901234567,0,0,0.06234567901234567,48.50493827160493,0)" xlink:href="#be"/></g><path d="M30-248c87 1 191-15 191 75 0 78-77 80-158 76V0H30v-248zm33 125c57 0 124 11 124-50 0-59-68-47-124-48v98" id="bf"/><path d="M114-163C36-179 61-72 57 0H25l-1-190h30c1 12-1 29 2 39 6-27 23-49 58-41v29" id="bg"/><path d="M100-194c62-1 85 37 85 99 1 63-27 99-86 99S16-35 15-95c0-66 28-99 85-99zM99-20c44 1 53-31 53-75 0-43-8-75-51-75s-53 32-53 75 10 74 51 75" id="bh"/><path d="M96-169c-40 0-48 33-48 73s9 75 48 75c24 0 41-14 43-38l32 2c-6 37-31 61-74 61-59 0-76-41-82-99-10-93 101-131 147-64 4 7 5 14 7 22l-32 3c-4-21-16-35-41-35" id="bi"/><path d="M135-143c-3-34-86-38-87 0 15 53 115 12 119 90S17 21 10-45l28-5c4 36 97 45 98 0-10-56-113-15-118-90-4-57 82-63 122-42 12 7 21 19 24 35" id="bj"/><path d="M117-194c89-4 53 116 60 194h-32v-121c0-31-8-49-39-48C34-167 62-67 57 0H25l-1-190h30c1 10-1 24 2 32 11-22 29-35 61-36" id="bk"/><path d="M177-190C167-65 218 103 67 71c-23-6-38-20-44-43l32-5c15 47 100 32 89-28v-30C133-14 115 1 83 1 29 1 15-40 15-95c0-56 16-97 71-98 29-1 48 16 59 35 1-10 0-23 2-32h30zM94-22c36 0 50-32 50-73 0-42-14-75-50-75-39 0-46 34-46 75s6 73 46 73" id="bl"/><g id="q"><use transform="matrix(0.06234567901234567,0,0,0.06234567901234567,0,0)" xlink:href="#bf"/><use transform="matrix(0.06234567901234567,0,0,0.06234567901234567,14.96296296296296,0)" xlink:href="#bg"/><use transform="matrix(0.06234567901234567,0,0,0.06234567901234567,22.382098765432094,0)" xlink:href="#bh"/><use transform="matrix(0.06234567901234567,0,0,0.06234567901234567,34.85123456790123,0)" xlink:href="#bi"/><use transform="matrix(0.06234567901234567,0,0,0.06234567901234567,46.07345679012345,0)" xlink:href="#bb"/><use transform="matrix(0.06234567901234567,0,0,0.06234567901234567,58.542592592592584,0)" xlink:href="#bj"/><use transform="matrix(0.06234567901234567,0,0,0.06234567901234567,69.7648148148148,0)" xlink:href="#bj"/><use transform="matrix(0.06234567901234567,0,0,0.06234567901234567,80.98703703703701,0)" xlink:href="#bd"/><use transform="matrix(0.06234567901234567,0,0,0.06234567901234567,85.91234567901232,0)" xlink:href="#bk"/><use transform="matrix(0.06234567901234567,0,0,0.06234567901234567,98.38148148148144,0)" xlink:href="#bl"/></g><path d="M140-251c81 0 123 46 123 126C263-53 228-8 163 1c7 30 30 48 69 40v23c-55 16-95-15-103-61C56-3 17-48 17-125c0-80 42-126 123-126zm0 227c63 0 89-41 89-101s-29-99-89-99c-61 0-89 39-89 99S79-25 140-24" id="bm"/><path d="M84 4C-5 8 30-112 23-190h32v120c0 31 7 50 39 49 72-2 45-101 50-169h31l1 190h-30c-1-10 1-25-2-33-11 22-28 36-60 37" id="bn"/><g id="r"><use transform="matrix(0.06234567901234567,0,0,0.06234567901234567,0,0)" xlink:href="#bm"/><use transform="matrix(0.06234567901234567,0,0,0.06234567901234567,17.456790123456788,0)" xlink:href="#bn"/><use transform="matrix(0.06234567901234567,0,0,0.06234567901234567,29.92592592592592,0)" xlink:href="#bb"/><use transform="matrix(0.06234567901234567,0,0,0.06234567901234567,42.39506172839505,0)" xlink:href="#bn"/><use transform="matrix(0.06234567901234567,0,0,0.06234567901234567,54.86419753086418,0)" xlink:href="#bb"/></g><path fill="#3a414a" d="M266 0h-40l-56-210L115 0H75L2-248h35L96-30l15-64 43-154h32l59 218 59-218h35" id="bo"/><g id="s"><use transform="matrix(0.06172839506172839,0,0,0.06172839506172839,0,0)" xlink:href="#aG"/><use transform="matrix(0.06172839506172839,0,0,0.06172839506172839,14.012345679012345,0)" xlink:href="#bo"/><use transform="matrix(0.06172839506172839,0,0,0.06172839506172839,34.938271604938265,0)" xlink:href="#aW"/></g><path fill="#3a414a" d="M30 0v-248h33v221h125V0H30" id="bp"/><g id="t"><use transform="matrix(0.06172839506172839,0,0,0.06172839506172839,0,0)" xlink:href="#bp"/><use transform="matrix(0.06172839506172839,0,0,0.06172839506172839,12.345679012345679,0)" xlink:href="#aD"/><use transform="matrix(0.06172839506172839,0,0,0.06172839506172839,24.691358024691358,0)" xlink:href="#aA"/><use transform="matrix(0.06172839506172839,0,0,0.06172839506172839,43.148148148148145,0)" xlink:href="#aB"/><use transform="matrix(0.06172839506172839,0,0,0.06172839506172839,55.49382716049382,0)" xlink:href="#aN"/><use transform="matrix(0.06172839506172839,0,0,0.06172839506172839,67.8395061728395,0)" xlink:href="#aD"/></g><g id="u"><use transform="matrix(0.06172839506172839,0,0,0.06172839506172839,0,0)" xlink:href="#aW"/><use transform="matrix(0.06172839506172839,0,0,0.06172839506172839,14.814814814814813,0)" xlink:href="#aR"/><use transform="matrix(0.06172839506172839,0,0,0.06172839506172839,20.98765432098765,0)" xlink:href="#aD"/><use transform="matrix(0.06172839506172839,0,0,0.06172839506172839,33.33333333333333,0)" xlink:href="#aB"/><use transform="matrix(0.06172839506172839,0,0,0.06172839506172839,45.679012345679006,0)" xlink:href="#aF"/><use transform="matrix(0.06172839506172839,0,0,0.06172839506172839,50.55555555555555,0)" xlink:href="#aM"/></g><path fill="#3a414a" d="M30-248c118-7 216 8 213 122C240-48 200 0 122 0H30v-248zM63-27c89 8 146-16 146-99s-60-101-146-95v194" id="bq"/><g id="v"><use transform="matrix(0.06172839506172839,0,0,0.06172839506172839,0,0)" xlink:href="#bq"/><use transform="matrix(0.06172839506172839,0,0,0.06172839506172839,15.987654320987653,0)" xlink:href="#aE"/><use transform="matrix(0.06172839506172839,0,0,0.06172839506172839,20.864197530864196,0)" xlink:href="#aY"/><use transform="matrix(0.06172839506172839,0,0,0.06172839506172839,26.604938271604937,0)" xlink:href="#aY"/><use transform="matrix(0.06172839506172839,0,0,0.06172839506172839,32.77777777777778,0)" xlink:href="#az"/><use transform="matrix(0.06172839506172839,0,0,0.06172839506172839,45.123456790123456,0)" xlink:href="#aV"/><use transform="matrix(0.06172839506172839,0,0,0.06172839506172839,56.23456790123457,0)" xlink:href="#aE"/><use transform="matrix(0.06172839506172839,0,0,0.06172839506172839,61.111111111111114,0)" xlink:href="#aT"/><use transform="matrix(0.06172839506172839,0,0,0.06172839506172839,73.4567901234568,0)" xlink:href="#aC"/></g><path fill="#333" d="M4 7l51-268h42L46 7H4" id="br"/><path fill="#333" d="M135-150c-39-12-60 13-60 57V0H25l-1-190h47c2 13-1 29 3 40 6-28 27-53 61-41v41" id="bs"/><path fill="#333" d="M185-48c-13 30-37 53-82 52C43 2 14-33 14-96s30-98 90-98c62 0 83 45 84 108H66c0 31 8 55 39 56 18 0 30-7 34-22zm-45-69c5-46-57-63-70-21-2 6-4 13-4 21h74" id="bt"/><path fill="#333" d="M137-138c1-29-70-34-71-4 15 46 118 7 119 86 1 83-164 76-172 9l43-7c4 19 20 25 44 25 33 8 57-30 24-41C81-84 22-81 20-136c-2-80 154-74 161-7" id="bu"/><path fill="#333" d="M85 4C-2 5 27-109 22-190h50c7 57-23 150 33 157 60-5 35-97 40-157h50l1 190h-47c-2-12 1-28-3-38-12 25-28 42-61 42" id="bv"/><path fill="#333" d="M25 0v-261h50V0H25" id="bw"/><path fill="#333" d="M115-3C79 11 28 4 28-45v-112H4v-33h27l15-45h31v45h36v33H77v99c-1 23 16 31 38 25v30" id="bx"/><g id="w"><use transform="matrix(0.04938271604938272,0,0,0.04938271604938272,0,0)" xlink:href="#br"/><use transform="matrix(0.04938271604938272,0,0,0.04938271604938272,4.938271604938272,0)" xlink:href="#bs"/><use transform="matrix(0.04938271604938272,0,0,0.04938271604938272,11.851851851851853,0)" xlink:href="#bt"/><use transform="matrix(0.04938271604938272,0,0,0.04938271604938272,21.7283950617284,0)" xlink:href="#bu"/><use transform="matrix(0.04938271604938272,0,0,0.04938271604938272,31.60493827160494,0)" xlink:href="#bv"/><use transform="matrix(0.04938271604938272,0,0,0.04938271604938272,42.41975308641976,0)" xlink:href="#bw"/><use transform="matrix(0.04938271604938272,0,0,0.04938271604938272,47.35802469135803,0)" xlink:href="#bx"/></g><g id="x"><use transform="matrix(0.06172839506172839,0,0,0.06172839506172839,0,0)" xlink:href="#ax"/><use transform="matrix(0.06172839506172839,0,0,0.06172839506172839,12.716049382716047,0)" xlink:href="#aU"/><use transform="matrix(0.06172839506172839,0,0,0.06172839506172839,20.061728395061728,0)" xlink:href="#aD"/><use transform="matrix(0.06172839506172839,0,0,0.06172839506172839,32.407407407407405,0)" xlink:href="#aC"/><use transform="matrix(0.06172839506172839,0,0,0.06172839506172839,44.75308641975308,0)" xlink:href="#aV"/><use transform="matrix(0.06172839506172839,0,0,0.06172839506172839,55.86419753086419,0)" xlink:href="#aD"/><use transform="matrix(0.06172839506172839,0,0,0.06172839506172839,68.20987654320987,0)" xlink:href="#aP"/><use transform="matrix(0.06172839506172839,0,0,0.06172839506172839,79.32098765432099,0)" xlink:href="#aR"/><use transform="matrix(0.06172839506172839,0,0,0.06172839506172839,85.49382716049382,0)" xlink:href="#aE"/><use transform="matrix(0.06172839506172839,0,0,0.06172839506172839,90.37037037037037,0)" xlink:href="#aT"/><use transform="matrix(0.06172839506172839,0,0,0.06172839506172839,102.71604938271605,0)" xlink:href="#aC"/><use transform="matrix(0.06172839506172839,0,0,0.06172839506172839,115.06172839506173,0)" xlink:href="#aV"/></g><g id="y"><use transform="matrix(0.06172839506172839,0,0,0.06172839506172839,0,0)" xlink:href="#ax"/><use transform="matrix(0.06172839506172839,0,0,0.06172839506172839,11.049382716049381,0)" xlink:href="#aD"/><use transform="matrix(0.06172839506172839,0,0,0.06172839506172839,23.39506172839506,0)" xlink:href="#aB"/><use transform="matrix(0.06172839506172839,0,0,0.06172839506172839,35.74074074074074,0)" xlink:href="#aF"/><use transform="matrix(0.06172839506172839,0,0,0.06172839506172839,40.617283950617285,0)" xlink:href="#aM"/></g><path fill="#333" d="M67-125c0 53 21 87 73 88 37 1 54-22 65-47l45 17C233-25 199 4 140 4 58 4 20-42 15-125 8-235 124-281 211-232c18 10 29 29 36 50l-46 12c-8-25-30-41-62-41-52 0-71 34-72 86" id="by"/><path fill="#333" d="M110-194c64 0 96 36 96 99 0 64-35 99-97 99-61 0-95-36-95-99 0-62 34-99 96-99zm-1 164c35 0 45-28 45-65 0-40-10-65-43-65-34 0-45 26-45 65 0 36 10 65 43 65" id="bz"/><path fill="#333" d="M88-194c31-1 46 15 58 34l-1-101h50l1 261h-48c-2-10 0-23-3-31C134-8 116 4 84 4 32 4 16-41 15-95c0-56 19-97 73-99zm17 164c33 0 40-30 41-66 1-37-9-64-41-64s-38 30-39 65c0 43 13 65 39 65" id="bA"/><path fill="#333" d="M76-208v77h127v40H76V0H24v-248h183v40H76" id="bB"/><path fill="#333" d="M135-194c87-1 58 113 63 194h-50c-7-57 23-157-34-157-59 0-34 97-39 157H25l-1-190h47c2 12-1 28 3 38 12-26 28-41 61-42" id="bC"/><g id="z"><use transform="matrix(0.04938271604938272,0,0,0.04938271604938272,0,0)" xlink:href="#by"/><use transform="matrix(0.04938271604938272,0,0,0.04938271604938272,12.790123456790125,0)" xlink:href="#bw"/><use transform="matrix(0.04938271604938272,0,0,0.04938271604938272,17.7283950617284,0)" xlink:href="#bz"/><use transform="matrix(0.04938271604938272,0,0,0.04938271604938272,28.54320987654322,0)" xlink:href="#bv"/><use transform="matrix(0.04938271604938272,0,0,0.04938271604938272,39.35802469135803,0)" xlink:href="#bA"/><use transform="matrix(0.04938271604938272,0,0,0.04938271604938272,50.17283950617285,0)" xlink:href="#bB"/><use transform="matrix(0.04938271604938272,0,0,0.04938271604938272,60.98765432098767,0)" xlink:href="#bs"/><use transform="matrix(0.04938271604938272,0,0,0.04938271604938272,67.90123456790124,0)" xlink:href="#bz"/><use transform="matrix(0.04938271604938272,0,0,0.04938271604938272,78.71604938271605,0)" xlink:href="#bC"/><use transform="matrix(0.04938271604938272,0,0,0.04938271604938272,89.53086419753086,0)" xlink:href="#bx"/></g><path fill="#333" d="M238-95c0 69-44 99-111 99C63 4 22-25 22-93v-155h51v151c-1 38 19 59 55 60 90 1 49-130 58-211h52v153" id="bD"/><path fill="#333" d="M240-174c0 40-23 61-54 70L253 0h-59l-57-94H76V0H24v-248c93 4 217-23 216 74zM76-134c48-2 112 12 112-38 0-48-66-32-112-35v73" id="bE"/><path fill="#333" d="M24 0v-248h52v208h133V0H24" id="bF"/><g id="A"><use transform="matrix(0.04938271604938272,0,0,0.04938271604938272,0,0)" xlink:href="#bD"/><use transform="matrix(0.04938271604938272,0,0,0.04938271604938272,12.790123456790125,0)" xlink:href="#bE"/><use transform="matrix(0.04938271604938272,0,0,0.04938271604938272,25.58024691358025,0)" xlink:href="#bF"/></g><path fill="#3a414a" d="M67-125c0 54 23 88 75 88 28 0 53-7 68-21v-34h-60v-39h108v91C232-14 192 4 140 4 58 4 20-42 15-125 8-236 126-280 215-234c19 10 29 26 37 47l-47 15c-11-23-29-39-63-39-53 1-75 33-75 86" id="bG"/><path fill="#3a414a" d="M185-48c-13 30-37 53-82 52C43 2 14-33 14-96s30-98 90-98c62 0 83 45 84 108H66c0 31 8 55 39 56 18 0 30-7 34-22zm-45-69c5-46-57-63-70-21-2 6-4 13-4 21h74" id="bH"/><path fill="#3a414a" d="M135-194c87-1 58 113 63 194h-50c-7-57 23-157-34-157-59 0-34 97-39 157H25l-1-190h47c2 12-1 28 3 38 12-26 28-41 61-42" id="bI"/><path fill="#3a414a" d="M135-150c-39-12-60 13-60 57V0H25l-1-190h47c2 13-1 29 3 40 6-28 27-53 61-41v41" id="bJ"/><path fill="#3a414a" d="M133-34C117-15 103 5 69 4 32 3 11-16 11-54c-1-60 55-63 116-61 1-26-3-47-28-47-18 1-26 9-28 27l-52-2c7-38 36-58 82-57s74 22 75 68l1 82c-1 14 12 18 25 15v27c-30 8-71 5-69-32zm-48 3c29 0 43-24 42-57-32 0-66-3-65 30 0 17 8 27 23 27" id="bK"/><path fill="#3a414a" d="M115-3C79 11 28 4 28-45v-112H4v-33h27l15-45h31v45h36v33H77v99c-1 23 16 31 38 25v30" id="bL"/><path fill="#3a414a" d="M25-224v-37h50v37H25zM25 0v-190h50V0H25" id="bM"/><path fill="#3a414a" d="M195-6C206 82 75 100 31 46c-4-6-6-13-8-21l49-6c3 16 16 24 34 25 40 0 42-37 40-79-11 22-30 35-61 35-53 0-70-43-70-97 0-56 18-96 73-97 30 0 46 14 59 34l2-30h47zm-90-29c32 0 41-27 41-63 0-35-9-62-40-62-32 0-39 29-40 63 0 36 9 62 39 62" id="bN"/><g id="B"><use transform="matrix(0.12962962962962957,0,0,0.12962962962962957,0,0)" xlink:href="#bG"/><use transform="matrix(0.12962962962962957,0,0,0.12962962962962957,36.296296296296276,0)" xlink:href="#bH"/><use transform="matrix(0.12962962962962957,0,0,0.12962962962962957,62.222222222222186,0)" xlink:href="#bI"/><use transform="matrix(0.12962962962962957,0,0,0.12962962962962957,90.61111111111106,0)" xlink:href="#bH"/><use transform="matrix(0.12962962962962957,0,0,0.12962962962962957,116.53703703703697,0)" xlink:href="#bJ"/><use transform="matrix(0.12962962962962957,0,0,0.12962962962962957,134.68518518518508,0)" xlink:href="#bK"/><use transform="matrix(0.12962962962962957,0,0,0.12962962962962957,160.61111111111103,0)" xlink:href="#bL"/><use transform="matrix(0.12962962962962957,0,0,0.12962962962962957,176.03703703703695,0)" xlink:href="#bM"/><use transform="matrix(0.12962962962962957,0,0,0.12962962962962957,188.99999999999991,0)" xlink:href="#bI"/><use transform="matrix(0.12962962962962957,0,0,0.12962962962962957,217.3888888888888,0)" xlink:href="#bN"/></g><path fill="#3a414a" d="M136-208V0H84v-208H4v-40h212v40h-80" id="bO"/><path fill="#3a414a" d="M114-157C55-157 80-60 75 0H25v-261h50l-1 109c12-26 28-41 61-42 86-1 58 113 63 194h-50c-7-57 23-157-34-157" id="bP"/><path fill="#3a414a" d="M85 4C-2 5 27-109 22-190h50c7 57-23 150 33 157 60-5 35-97 40-157h50l1 190h-47c-2-12 1-28-3-38-12 25-28 42-61 42" id="bQ"/><path fill="#3a414a" d="M220-157c-53 9-28 100-34 157h-49v-107c1-27-5-49-29-50C55-147 81-57 75 0H25l-1-190h47c2 12-1 28 3 38 10-53 101-56 108 0 13-22 24-43 59-42 82 1 51 116 57 194h-49v-107c-1-25-5-48-29-50" id="bR"/><path fill="#3a414a" d="M135-194c52 0 70 43 70 98 0 56-19 99-73 100-30 1-46-15-58-35L72 0H24l1-261h50v104c11-23 29-37 60-37zM114-30c31 0 40-27 40-66 0-37-7-63-39-63s-41 28-41 65c0 36 8 64 40 64" id="bS"/><path fill="#3a414a" d="M25 0v-261h50V0H25" id="bT"/><path fill="#3a414a" d="M137-138c1-29-70-34-71-4 15 46 118 7 119 86 1 83-164 76-172 9l43-7c4 19 20 25 44 25 33 8 57-30 24-41C81-84 22-81 20-136c-2-80 154-74 161-7" id="bU"/><g id="C"><use transform="matrix(0.12962962962962957,0,0,0.12962962962962957,0,0)" xlink:href="#bO"/><use transform="matrix(0.12962962962962957,0,0,0.12962962962962957,28.388888888888875,0)" xlink:href="#bP"/><use transform="matrix(0.12962962962962957,0,0,0.12962962962962957,56.77777777777775,0)" xlink:href="#bQ"/><use transform="matrix(0.12962962962962957,0,0,0.12962962962962957,85.16666666666663,0)" xlink:href="#bR"/><use transform="matrix(0.12962962962962957,0,0,0.12962962962962957,126.6481481481481,0)" xlink:href="#bS"/><use transform="matrix(0.12962962962962957,0,0,0.12962962962962957,155.03703703703698,0)" xlink:href="#bI"/><use transform="matrix(0.12962962962962957,0,0,0.12962962962962957,183.42592592592587,0)" xlink:href="#bK"/><use transform="matrix(0.12962962962962957,0,0,0.12962962962962957,209.3518518518518,0)" xlink:href="#bM"/><use transform="matrix(0.12962962962962957,0,0,0.12962962962962957,222.31481481481475,0)" xlink:href="#bT"/><use transform="matrix(0.12962962962962957,0,0,0.12962962962962957,235.27777777777771,0)" xlink:href="#bU"/></g><path fill="#3a414a" d="M76-208v77h127v40H76V0H24v-248h183v40H76" id="bV"/><path fill="#3a414a" d="M110-194c64 0 96 36 96 99 0 64-35 99-97 99-61 0-95-36-95-99 0-62 34-99 96-99zm-1 164c35 0 45-28 45-65 0-40-10-65-43-65-34 0-45 26-45 65 0 36 10 65 43 65" id="bW"/><g id="D"><use transform="matrix(0.12962962962962957,0,0,0.12962962962962957,0,0)" xlink:href="#bV"/><use transform="matrix(0.12962962962962957,0,0,0.12962962962962957,28.388888888888875,0)" xlink:href="#bJ"/><use transform="matrix(0.12962962962962957,0,0,0.12962962962962957,46.53703703703701,0)" xlink:href="#bW"/><use transform="matrix(0.12962962962962957,0,0,0.12962962962962957,74.92592592592588,0)" xlink:href="#bR"/></g><path fill="#3a414a" d="M147 0H94L2-248h55l64 206c17-72 42-137 63-206h54" id="bX"/><path fill="#3a414a" d="M88-194c31-1 46 15 58 34l-1-101h50l1 261h-48c-2-10 0-23-3-31C134-8 116 4 84 4 32 4 16-41 15-95c0-56 19-97 73-99zm17 164c33 0 40-30 41-66 1-37-9-64-41-64s-38 30-39 65c0 43 13 65 39 65" id="bY"/><g id="E"><use transform="matrix(0.12962962962962957,0,0,0.12962962962962957,0,0)" xlink:href="#bX"/><use transform="matrix(0.12962962962962957,0,0,0.12962962962962957,30.203703703703688,0)" xlink:href="#bM"/><use transform="matrix(0.12962962962962957,0,0,0.12962962962962957,43.16666666666664,0)" xlink:href="#bY"/><use transform="matrix(0.12962962962962957,0,0,0.12962962962962957,71.55555555555551,0)" xlink:href="#bH"/><use transform="matrix(0.12962962962962957,0,0,0.12962962962962957,97.48148148148142,0)" xlink:href="#bW"/><use transform="matrix(0.12962962962962957,0,0,0.12962962962962957,125.8703703703703,0)" xlink:href="#bU"/></g><path fill="#3a414a" d="M67-93c0 74 22 123 53 168H70C40 30 18-18 18-93s22-123 52-168h50c-32 44-53 94-53 168" id="bZ"/><path fill="#3a414a" d="M128 0H69L1-190h53L99-40l48-150h52" id="ca"/><path fill="#3a414a" d="M23 0v-37h61v-169l-59 37v-38l62-41h46v211h57V0H23" id="cb"/><path fill="#3a414a" d="M102-93c0 74-22 123-52 168H0C30 29 54-18 53-93c0-74-22-123-53-168h50c30 45 52 94 52 168" id="cc"/><g id="F"><use transform="matrix(0.12962962962962957,0,0,0.12962962962962957,0,0)" xlink:href="#bZ"/><use transform="matrix(0.12962962962962957,0,0,0.12962962962962957,15.425925925925918,0)" xlink:href="#ca"/><use transform="matrix(0.12962962962962957,0,0,0.12962962962962957,41.35185185185183,0)" xlink:href="#cb"/><use transform="matrix(0.12962962962962957,0,0,0.12962962962962957,67.27777777777774,0)" xlink:href="#cc"/></g><path fill="#3a414a" d="M35-132v-50h50v50H35zM35 0v-49h50V0H35" id="cd"/><g id="G"><use transform="matrix(0.06172839506172839,0,0,0.06172839506172839,0,0)" xlink:href="#bV"/><use transform="matrix(0.06172839506172839,0,0,0.06172839506172839,13.518518518518517,0)" xlink:href="#bH"/><use transform="matrix(0.06172839506172839,0,0,0.06172839506172839,25.864197530864196,0)" xlink:href="#bK"/><use transform="matrix(0.06172839506172839,0,0,0.06172839506172839,38.20987654320987,0)" xlink:href="#bL"/><use transform="matrix(0.06172839506172839,0,0,0.06172839506172839,45.55555555555555,0)" xlink:href="#bQ"/><use transform="matrix(0.06172839506172839,0,0,0.06172839506172839,59.07407407407407,0)" xlink:href="#bJ"/><use transform="matrix(0.06172839506172839,0,0,0.06172839506172839,67.71604938271605,0)" xlink:href="#bH"/><use transform="matrix(0.06172839506172839,0,0,0.06172839506172839,80.06172839506173,0)" xlink:href="#bU"/><use transform="matrix(0.06172839506172839,0,0,0.06172839506172839,92.40740740740742,0)" xlink:href="#cd"/></g><path fill="#3a414a" d="M62-168c30 0 50 19 50 48S92-70 62-70c-29 0-48-21-48-50s20-48 48-48" id="ce"/><use transform="matrix(0.06172839506172839,0,0,0.06172839506172839,0,0)" xlink:href="#ce" id="H"/><path fill="#3a414a" d="M232-93c-1 65-40 97-104 97C67 4 28-28 28-90v-158h33c8 89-33 224 67 224 102 0 64-133 71-224h33v155" id="cf"/><g id="I"><use transform="matrix(0.06172839506172839,0,0,0.06172839506172839,0,0)" xlink:href="#cf"/><use transform="matrix(0.06172839506172839,0,0,0.06172839506172839,15.987654320987653,0)" xlink:href="#aX"/><use transform="matrix(0.06172839506172839,0,0,0.06172839506172839,28.333333333333332,0)" xlink:href="#aF"/><use transform="matrix(0.06172839506172839,0,0,0.06172839506172839,33.20987654320987,0)" xlink:href="#aT"/><use transform="matrix(0.06172839506172839,0,0,0.06172839506172839,45.55555555555555,0)" xlink:href="#aD"/><use transform="matrix(0.06172839506172839,0,0,0.06172839506172839,57.90123456790123,0)" xlink:href="#aN"/></g><path fill="#3a414a" d="M108 0H70L1-190h34L89-25l56-165h34" id="cg"/><g id="J"><use transform="matrix(0.06172839506172839,0,0,0.06172839506172839,0,0)" xlink:href="#cg"/><use transform="matrix(0.06172839506172839,0,0,0.06172839506172839,11.11111111111111,0)" xlink:href="#aE"/><use transform="matrix(0.06172839506172839,0,0,0.06172839506172839,15.987654320987653,0)" xlink:href="#aN"/><use transform="matrix(0.06172839506172839,0,0,0.06172839506172839,28.333333333333332,0)" xlink:href="#aM"/><use transform="matrix(0.06172839506172839,0,0,0.06172839506172839,40.67901234567901,0)" xlink:href="#aT"/><use transform="matrix(0.06172839506172839,0,0,0.06172839506172839,53.02469135802469,0)" xlink:href="#aV"/></g><path fill="#3a414a" d="M137 0h-34L2-248h35l83 218 83-218h36" id="ch"/><g id="K"><use transform="matrix(0.06172839506172839,0,0,0.06172839506172839,0,0)" xlink:href="#ch"/><use transform="matrix(0.06172839506172839,0,0,0.06172839506172839,14.382716049382715,0)" xlink:href="#aE"/><use transform="matrix(0.06172839506172839,0,0,0.06172839506172839,19.25925925925926,0)" xlink:href="#aN"/><use transform="matrix(0.06172839506172839,0,0,0.06172839506172839,31.604938271604937,0)" xlink:href="#aM"/><use transform="matrix(0.06172839506172839,0,0,0.06172839506172839,43.95061728395061,0)" xlink:href="#aT"/><use transform="matrix(0.06172839506172839,0,0,0.06172839506172839,56.29629629629629,0)" xlink:href="#aV"/></g><g id="L"><use transform="matrix(0.06172839506172839,0,0,0.06172839506172839,0,0)" xlink:href="#aZ"/><use transform="matrix(0.06172839506172839,0,0,0.06172839506172839,12.345679012345679,0)" xlink:href="#aM"/><use transform="matrix(0.06172839506172839,0,0,0.06172839506172839,24.691358024691358,0)" xlink:href="#aR"/></g><g id="M"><use transform="matrix(0.06172839506172839,0,0,0.06172839506172839,0,0)" xlink:href="#aR"/><use transform="matrix(0.06172839506172839,0,0,0.06172839506172839,6.172839506172839,0)" xlink:href="#aU"/><use transform="matrix(0.06172839506172839,0,0,0.06172839506172839,13.518518518518519,0)" xlink:href="#aD"/><use transform="matrix(0.06172839506172839,0,0,0.06172839506172839,25.864197530864196,0)" xlink:href="#aC"/><use transform="matrix(0.06172839506172839,0,0,0.06172839506172839,38.20987654320987,0)" xlink:href="#aV"/><use transform="matrix(0.06172839506172839,0,0,0.06172839506172839,49.32098765432099,0)" xlink:href="#aP"/><use transform="matrix(0.06172839506172839,0,0,0.06172839506172839,60.4320987654321,0)" xlink:href="#aU"/><use transform="matrix(0.06172839506172839,0,0,0.06172839506172839,67.77777777777779,0)" xlink:href="#aE"/><use transform="matrix(0.06172839506172839,0,0,0.06172839506172839,72.65432098765433,0)" xlink:href="#aB"/><use transform="matrix(0.06172839506172839,0,0,0.06172839506172839,85.00000000000001,0)" xlink:href="#aM"/><use transform="matrix(0.06172839506172839,0,0,0.06172839506172839,97.3456790123457,0)" xlink:href="#aN"/></g><g id="N"><use transform="matrix(0.06172839506172839,0,0,0.06172839506172839,0,0)" xlink:href="#aD"/><use transform="matrix(0.06172839506172839,0,0,0.06172839506172839,12.345679012345679,0)" xlink:href="#aC"/><use transform="matrix(0.06172839506172839,0,0,0.06172839506172839,24.691358024691358,0)" xlink:href="#aN"/></g><g id="O"><use transform="matrix(0.06172839506172839,0,0,0.06172839506172839,0,0)" xlink:href="#aV"/><use transform="matrix(0.06172839506172839,0,0,0.06172839506172839,11.11111111111111,0)" xlink:href="#az"/><use transform="matrix(0.06172839506172839,0,0,0.06172839506172839,23.45679012345679,0)" xlink:href="#aA"/><use transform="matrix(0.06172839506172839,0,0,0.06172839506172839,41.91358024691358,0)" xlink:href="#aA"/><use transform="matrix(0.06172839506172839,0,0,0.06172839506172839,60.37037037037037,0)" xlink:href="#aD"/><use transform="matrix(0.06172839506172839,0,0,0.06172839506172839,72.71604938271605,0)" xlink:href="#aU"/><use transform="matrix(0.06172839506172839,0,0,0.06172839506172839,80.06172839506173,0)" xlink:href="#aE"/><use transform="matrix(0.06172839506172839,0,0,0.06172839506172839,84.93827160493828,0)" xlink:href="#aS"/><use transform="matrix(0.06172839506172839,0,0,0.06172839506172839,96.0493827160494,0)" xlink:href="#aM"/><use transform="matrix(0.06172839506172839,0,0,0.06172839506172839,108.39506172839508,0)" xlink:href="#aN"/></g><g id="P"><use transform="matrix(0.06172839506172839,0,0,0.06172839506172839,0,0)" xlink:href="#bq"/><use transform="matrix(0.06172839506172839,0,0,0.06172839506172839,15.987654320987653,0)" xlink:href="#aE"/><use transform="matrix(0.06172839506172839,0,0,0.06172839506172839,20.864197530864196,0)" xlink:href="#aY"/><use transform="matrix(0.06172839506172839,0,0,0.06172839506172839,26.604938271604937,0)" xlink:href="#aY"/><use transform="matrix(0.06172839506172839,0,0,0.06172839506172839,32.77777777777778,0)" xlink:href="#az"/><use transform="matrix(0.06172839506172839,0,0,0.06172839506172839,45.123456790123456,0)" xlink:href="#aV"/><use transform="matrix(0.06172839506172839,0,0,0.06172839506172839,56.23456790123457,0)" xlink:href="#aE"/><use transform="matrix(0.06172839506172839,0,0,0.06172839506172839,61.111111111111114,0)" xlink:href="#aT"/><use transform="matrix(0.06172839506172839,0,0,0.06172839506172839,73.4567901234568,0)" xlink:href="#aC"/></g><g id="Q"><use transform="matrix(0.06172839506172839,0,0,0.06172839506172839,0,0)" xlink:href="#aU"/><use transform="matrix(0.06172839506172839,0,0,0.06172839506172839,7.345679012345679,0)" xlink:href="#az"/><use transform="matrix(0.06172839506172839,0,0,0.06172839506172839,19.691358024691358,0)" xlink:href="#aC"/></g><g id="R"><use transform="matrix(0.06172839506172839,0,0,0.06172839506172839,0,0)" xlink:href="#aT"/><use transform="matrix(0.06172839506172839,0,0,0.06172839506172839,12.345679012345679,0)" xlink:href="#aC"/></g><path fill="#3a414a" d="M179-190L93 31C79 59 56 82 12 73V49c39 6 53-20 64-50L1-190h34L92-34l54-156h33" id="ci"/><g id="S"><use transform="matrix(0.06172839506172839,0,0,0.06172839506172839,0,0)" xlink:href="#aV"/><use transform="matrix(0.06172839506172839,0,0,0.06172839506172839,11.11111111111111,0)" xlink:href="#az"/><use transform="matrix(0.06172839506172839,0,0,0.06172839506172839,23.45679012345679,0)" xlink:href="#aA"/><use transform="matrix(0.06172839506172839,0,0,0.06172839506172839,41.91358024691358,0)" xlink:href="#aA"/><use transform="matrix(0.06172839506172839,0,0,0.06172839506172839,60.37037037037037,0)" xlink:href="#aD"/><use transform="matrix(0.06172839506172839,0,0,0.06172839506172839,72.71604938271605,0)" xlink:href="#aU"/><use transform="matrix(0.06172839506172839,0,0,0.06172839506172839,80.06172839506173,0)" xlink:href="#ci"/></g><g id="T"><use transform="matrix(0.06172839506172839,0,0,0.06172839506172839,0,0)" xlink:href="#aT"/><use transform="matrix(0.06172839506172839,0,0,0.06172839506172839,12.345679012345679,0)" xlink:href="#az"/><use transform="matrix(0.06172839506172839,0,0,0.06172839506172839,24.691358024691358,0)" xlink:href="#aR"/><use transform="matrix(0.06172839506172839,0,0,0.06172839506172839,30.864197530864196,0)" xlink:href="#aX"/><use transform="matrix(0.06172839506172839,0,0,0.06172839506172839,43.20987654320987,0)" xlink:href="#az"/><use transform="matrix(0.06172839506172839,0,0,0.06172839506172839,55.55555555555555,0)" xlink:href="#aR"/></g><g id="U"><use transform="matrix(0.06172839506172839,0,0,0.06172839506172839,0,0)" xlink:href="#aU"/><use transform="matrix(0.06172839506172839,0,0,0.06172839506172839,7.345679012345679,0)" xlink:href="#aM"/><use transform="matrix(0.06172839506172839,0,0,0.06172839506172839,19.691358024691358,0)" xlink:href="#aR"/><use transform="matrix(0.06172839506172839,0,0,0.06172839506172839,25.864197530864196,0)" xlink:href="#az"/><use transform="matrix(0.06172839506172839,0,0,0.06172839506172839,38.20987654320987,0)" xlink:href="#aU"/><use transform="matrix(0.06172839506172839,0,0,0.06172839506172839,45.55555555555555,0)" xlink:href="#aC"/><use transform="matrix(0.06172839506172839,0,0,0.06172839506172839,57.90123456790123,0)" xlink:href="#aM"/><use transform="matrix(0.06172839506172839,0,0,0.06172839506172839,70.24691358024691,0)" xlink:href="#aN"/></g><g id="V"><use transform="matrix(0.06172839506172839,0,0,0.06172839506172839,0,0)" xlink:href="#aR"/><use transform="matrix(0.06172839506172839,0,0,0.06172839506172839,6.172839506172839,0)" xlink:href="#aT"/></g><g id="W"><use transform="matrix(0.06172839506172839,0,0,0.06172839506172839,0,0)" xlink:href="#az"/><use transform="matrix(0.06172839506172839,0,0,0.06172839506172839,12.345679012345679,0)" xlink:href="#aV"/><use transform="matrix(0.06172839506172839,0,0,0.06172839506172839,23.45679012345679,0)" xlink:href="#aM"/><use transform="matrix(0.06172839506172839,0,0,0.06172839506172839,35.80246913580247,0)" xlink:href="#aU"/></g><g id="Y"><use transform="matrix(0.06172839506172839,0,0,0.06172839506172839,0,0)" xlink:href="#cf"/><use transform="matrix(0.06172839506172839,0,0,0.06172839506172839,15.987654320987653,0)" xlink:href="#aV"/><use transform="matrix(0.06172839506172839,0,0,0.06172839506172839,27.098765432098766,0)" xlink:href="#aM"/><use transform="matrix(0.06172839506172839,0,0,0.06172839506172839,39.44444444444444,0)" xlink:href="#aU"/><use transform="matrix(0.06172839506172839,0,0,0.06172839506172839,46.79012345679012,0)" xlink:href="#aV"/></g><g id="Z"><use transform="matrix(0.06172839506172839,0,0,0.06172839506172839,0,0)" xlink:href="#aD"/><use transform="matrix(0.06172839506172839,0,0,0.06172839506172839,12.345679012345679,0)" xlink:href="#aU"/><use transform="matrix(0.06172839506172839,0,0,0.06172839506172839,19.691358024691358,0)" xlink:href="#aM"/></g><g id="aa"><use transform="matrix(0.06172839506172839,0,0,0.06172839506172839,0,0)" xlink:href="#aD"/><use transform="matrix(0.06172839506172839,0,0,0.06172839506172839,12.345679012345679,0)" xlink:href="#aC"/><use transform="matrix(0.06172839506172839,0,0,0.06172839506172839,24.691358024691358,0)" xlink:href="#aT"/><use transform="matrix(0.06172839506172839,0,0,0.06172839506172839,37.03703703703704,0)" xlink:href="#aC"/><use transform="matrix(0.06172839506172839,0,0,0.06172839506172839,49.382716049382715,0)" xlink:href="#ci"/><use transform="matrix(0.06172839506172839,0,0,0.06172839506172839,60.49382716049382,0)" xlink:href="#aA"/><use transform="matrix(0.06172839506172839,0,0,0.06172839506172839,78.9506172839506,0)" xlink:href="#aT"/><use transform="matrix(0.06172839506172839,0,0,0.06172839506172839,91.29629629629629,0)" xlink:href="#az"/><use transform="matrix(0.06172839506172839,0,0,0.06172839506172839,103.64197530864197,0)" xlink:href="#aV"/></g><path fill="#333" d="M135-194c53 0 70 44 70 98 0 56-19 98-73 100-31 1-45-17-59-34 3 33 2 69 2 105H25l-1-265h48c2 10 0 23 3 31 11-24 29-35 60-35zM114-30c33 0 39-31 40-66 0-38-9-64-40-64-56 0-55 130 0 130" id="cj"/><path fill="#333" d="M133-34C117-15 103 5 69 4 32 3 11-16 11-54c-1-60 55-63 116-61 1-26-3-47-28-47-18 1-26 9-28 27l-52-2c7-38 36-58 82-57s74 22 75 68l1 82c-1 14 12 18 25 15v27c-30 8-71 5-69-32zm-48 3c29 0 43-24 42-57-32 0-66-3-65 30 0 17 8 27 23 27" id="ck"/><g id="ab"><use transform="matrix(0.04938271604938272,0,0,0.04938271604938272,0,0)" xlink:href="#bD"/><use transform="matrix(0.04938271604938272,0,0,0.04938271604938272,12.790123456790125,0)" xlink:href="#cj"/><use transform="matrix(0.04938271604938272,0,0,0.04938271604938272,23.60493827160494,0)" xlink:href="#bw"/><use transform="matrix(0.04938271604938272,0,0,0.04938271604938272,28.543209876543212,0)" xlink:href="#bz"/><use transform="matrix(0.04938271604938272,0,0,0.04938271604938272,39.358024691358025,0)" xlink:href="#ck"/><use transform="matrix(0.04938271604938272,0,0,0.04938271604938272,49.23456790123457,0)" xlink:href="#bA"/></g><path fill="#333" d="M136-208V0H84v-208H4v-40h212v40h-80" id="cl"/><path fill="#333" d="M25-224v-37h50v37H25zM25 0v-190h50V0H25" id="cm"/><path fill="#333" d="M195-6C206 82 75 100 31 46c-4-6-6-13-8-21l49-6c3 16 16 24 34 25 40 0 42-37 40-79-11 22-30 35-61 35-53 0-70-43-70-97 0-56 18-96 73-97 30 0 46 14 59 34l2-30h47zm-90-29c32 0 41-27 41-63 0-35-9-62-40-62-32 0-39 29-40 63 0 36 9 62 39 62" id="cn"/><g id="ac"><use transform="matrix(0.04938271604938272,0,0,0.04938271604938272,0,0)" xlink:href="#cl"/><use transform="matrix(0.04938271604938272,0,0,0.04938271604938272,9.82716049382716,0)" xlink:href="#bs"/><use transform="matrix(0.04938271604938272,0,0,0.04938271604938272,16.74074074074074,0)" xlink:href="#cm"/><use transform="matrix(0.04938271604938272,0,0,0.04938271604938272,21.679012345679013,0)" xlink:href="#cn"/><use transform="matrix(0.04938271604938272,0,0,0.04938271604938272,32.49382716049383,0)" xlink:href="#cn"/><use transform="matrix(0.04938271604938272,0,0,0.04938271604938272,43.308641975308646,0)" xlink:href="#bt"/><use transform="matrix(0.04938271604938272,0,0,0.04938271604938272,53.18518518518519,0)" xlink:href="#bs"/></g><g id="ad"><use transform="matrix(0.06172839506172839,0,0,0.06172839506172839,0,0)" xlink:href="#ch"/><use transform="matrix(0.06172839506172839,0,0,0.06172839506172839,14.382716049382715,0)" xlink:href="#aE"/><use transform="matrix(0.06172839506172839,0,0,0.06172839506172839,19.25925925925926,0)" xlink:href="#aN"/><use transform="matrix(0.06172839506172839,0,0,0.06172839506172839,31.604938271604937,0)" xlink:href="#aM"/><use transform="matrix(0.06172839506172839,0,0,0.06172839506172839,43.95061728395061,0)" xlink:href="#aT"/></g><g id="ae"><use transform="matrix(0.06172839506172839,0,0,0.06172839506172839,0,0)" xlink:href="#ax"/><use transform="matrix(0.06172839506172839,0,0,0.06172839506172839,12.716049382716047,0)" xlink:href="#aU"/><use transform="matrix(0.06172839506172839,0,0,0.06172839506172839,20.061728395061728,0)" xlink:href="#aD"/><use transform="matrix(0.06172839506172839,0,0,0.06172839506172839,32.407407407407405,0)" xlink:href="#aC"/><use transform="matrix(0.06172839506172839,0,0,0.06172839506172839,44.75308641975308,0)" xlink:href="#aV"/><use transform="matrix(0.06172839506172839,0,0,0.06172839506172839,55.86419753086419,0)" xlink:href="#aP"/><use transform="matrix(0.06172839506172839,0,0,0.06172839506172839,66.9753086419753,0)" xlink:href="#aU"/><use transform="matrix(0.06172839506172839,0,0,0.06172839506172839,74.32098765432099,0)" xlink:href="#aE"/><use transform="matrix(0.06172839506172839,0,0,0.06172839506172839,79.19753086419753,0)" xlink:href="#aX"/><use transform="matrix(0.06172839506172839,0,0,0.06172839506172839,91.54320987654322,0)" xlink:href="#aR"/></g><g id="af"><use transform="matrix(0.04938271604938272,0,0,0.04938271604938272,0,0)" xlink:href="#br"/><use transform="matrix(0.04938271604938272,0,0,0.04938271604938272,4.938271604938272,0)" xlink:href="#bv"/><use transform="matrix(0.04938271604938272,0,0,0.04938271604938272,15.753086419753087,0)" xlink:href="#bs"/><use transform="matrix(0.04938271604938272,0,0,0.04938271604938272,22.666666666666668,0)" xlink:href="#bw"/></g><path fill="#333" d="M169-182c-1-43-94-46-97-3 18 66 151 10 154 114 3 95-165 93-204 36-6-8-10-19-12-30l50-8c3 46 112 56 116 5-17-69-150-10-154-114-4-87 153-88 188-35 5 8 8 18 10 28" id="co"/><g id="ag"><use transform="matrix(0.04938271604938272,0,0,0.04938271604938272,0,0)" xlink:href="#co"/><use transform="matrix(0.04938271604938272,0,0,0.04938271604938272,11.851851851851853,0)" xlink:href="#cm"/><use transform="matrix(0.04938271604938272,0,0,0.04938271604938272,16.790123456790127,0)" xlink:href="#cn"/><use transform="matrix(0.04938271604938272,0,0,0.04938271604938272,27.604938271604947,0)" xlink:href="#bC"/><use transform="matrix(0.04938271604938272,0,0,0.04938271604938272,38.41975308641976,0)" xlink:href="#bt"/><use transform="matrix(0.04938271604938272,0,0,0.04938271604938272,48.296296296296305,0)" xlink:href="#bA"/></g><g id="ah"><use transform="matrix(0.06172839506172839,0,0,0.06172839506172839,0,0)" xlink:href="#bo"/><use transform="matrix(0.06172839506172839,0,0,0.06172839506172839,20.493827160493826,0)" xlink:href="#aM"/><use transform="matrix(0.06172839506172839,0,0,0.06172839506172839,32.839506172839506,0)" xlink:href="#aB"/><use transform="matrix(0.06172839506172839,0,0,0.06172839506172839,45.18518518518518,0)" xlink:href="#aV"/><use transform="matrix(0.06172839506172839,0,0,0.06172839506172839,56.29629629629629,0)" xlink:href="#aE"/><use transform="matrix(0.06172839506172839,0,0,0.06172839506172839,61.172839506172835,0)" xlink:href="#aR"/><use transform="matrix(0.06172839506172839,0,0,0.06172839506172839,67.34567901234567,0)" xlink:href="#aM"/></g><g id="ai"><use transform="matrix(0.04938271604938272,0,0,0.04938271604938272,0,0)" xlink:href="#co"/><use transform="matrix(0.04938271604938272,0,0,0.04938271604938272,11.851851851851853,0)" xlink:href="#cm"/><use transform="matrix(0.04938271604938272,0,0,0.04938271604938272,16.790123456790127,0)" xlink:href="#cn"/><use transform="matrix(0.04938271604938272,0,0,0.04938271604938272,27.604938271604947,0)" xlink:href="#bC"/><use transform="matrix(0.04938271604938272,0,0,0.04938271604938272,38.41975308641976,0)" xlink:href="#bt"/><use transform="matrix(0.04938271604938272,0,0,0.04938271604938272,48.296296296296305,0)" xlink:href="#bA"/></g><g id="aj"><use transform="matrix(0.04938271604938272,0,0,0.04938271604938272,0,0)" xlink:href="#bD"/><use transform="matrix(0.04938271604938272,0,0,0.04938271604938272,12.790123456790125,0)" xlink:href="#bE"/><use transform="matrix(0.04938271604938272,0,0,0.04938271604938272,25.58024691358025,0)" xlink:href="#bF"/></g><path fill="#333" d="M190-63c-7 42-38 67-86 67-59 0-84-38-90-98-12-110 154-137 174-36l-49 2c-2-19-15-32-35-32-30 0-35 28-38 64-6 74 65 87 74 30" id="cp"/><path fill="#333" d="M-4 44V30h207v14H-4" id="cq"/><g id="ak"><use transform="matrix(0.04938271604938272,0,0,0.04938271604938272,0,0)" xlink:href="#bx"/><use transform="matrix(0.04938271604938272,0,0,0.04938271604938272,5.8765432098765435,0)" xlink:href="#bs"/><use transform="matrix(0.04938271604938272,0,0,0.04938271604938272,12.790123456790125,0)" xlink:href="#ck"/><use transform="matrix(0.04938271604938272,0,0,0.04938271604938272,22.666666666666668,0)" xlink:href="#bC"/><use transform="matrix(0.04938271604938272,0,0,0.04938271604938272,33.48148148148148,0)" xlink:href="#bu"/><use transform="matrix(0.04938271604938272,0,0,0.04938271604938272,43.358024691358025,0)" xlink:href="#ck"/><use transform="matrix(0.04938271604938272,0,0,0.04938271604938272,53.23456790123457,0)" xlink:href="#cp"/><use transform="matrix(0.04938271604938272,0,0,0.04938271604938272,63.111111111111114,0)" xlink:href="#bx"/><use transform="matrix(0.04938271604938272,0,0,0.04938271604938272,68.98765432098766,0)" xlink:href="#cm"/><use transform="matrix(0.04938271604938272,0,0,0.04938271604938272,73.92592592592592,0)" xlink:href="#bz"/><use transform="matrix(0.04938271604938272,0,0,0.04938271604938272,84.74074074074073,0)" xlink:href="#bC"/><use transform="matrix(0.04938271604938272,0,0,0.04938271604938272,95.55555555555554,0)" xlink:href="#cq"/><use transform="matrix(0.04938271604938272,0,0,0.04938271604938272,105.43209876543209,0)" xlink:href="#cm"/><use transform="matrix(0.04938271604938272,0,0,0.04938271604938272,110.37037037037035,0)" xlink:href="#bA"/></g></defs></g></svg>